<mxfile host="65bd71144e">
    <diagram id="IFENaAD3gIpmDv7Gg4IB" name="Page-1">
        <mxGraphModel dx="4179" dy="2836" grid="0" gridSize="10" guides="1" tooltips="1" connect="1" arrows="1" fold="1" page="0" pageScale="1" pageWidth="1654" pageHeight="1169" math="0" shadow="0">
            <root>
                <mxCell id="0"/>
                <mxCell id="1" parent="0"/>
                <mxCell id="391" value="" style="whiteSpace=wrap;html=1;fontSize=18;fillColor=none;" parent="1" vertex="1">
                    <mxGeometry x="3192" y="235" width="1278" height="703" as="geometry"/>
                </mxCell>
                <mxCell id="350" value="" style="whiteSpace=wrap;html=1;fontSize=18;fillColor=none;" parent="1" vertex="1">
                    <mxGeometry x="285" y="-1270" width="758" height="817" as="geometry"/>
                </mxCell>
                <mxCell id="245" value="" style="edgeStyle=orthogonalEdgeStyle;html=1;endArrow=open;endFill=0;dashed=1;fontSize=28;exitDx=0;exitDy=0;" parent="1" source="92" target="30" edge="1">
                    <mxGeometry relative="1" as="geometry">
                        <mxPoint x="915" y="2248" as="sourcePoint"/>
                        <mxPoint x="-188.5294117647054" y="2079" as="targetPoint"/>
                        <Array as="points">
                            <mxPoint x="606" y="2227"/>
                            <mxPoint x="606" y="2227"/>
                        </Array>
                    </mxGeometry>
                </mxCell>
                <mxCell id="2" value="&lt;font style=&quot;font-size: 28px ; font-weight: normal&quot;&gt;Is-A&lt;/font&gt;" style="text;strokeColor=none;fillColor=none;html=1;fontSize=24;fontStyle=1;verticalAlign=middle;align=center;dashed=1;dashPattern=1 1;" parent="1" vertex="1">
                    <mxGeometry x="-545.75" y="441" width="214" height="40" as="geometry"/>
                </mxCell>
                <mxCell id="3" value="&lt;font style=&quot;font-size: 28px ; font-weight: normal&quot;&gt;Implements&lt;/font&gt;" style="text;strokeColor=none;fillColor=none;html=1;fontSize=24;fontStyle=1;verticalAlign=middle;align=center;dashed=1;dashPattern=1 1;" parent="1" vertex="1">
                    <mxGeometry x="-545.75" y="504" width="214" height="40" as="geometry"/>
                </mxCell>
                <mxCell id="4" value="&lt;font style=&quot;font-size: 28px ; font-weight: normal&quot;&gt;Has-A&lt;/font&gt;" style="text;strokeColor=none;fillColor=none;html=1;fontSize=24;fontStyle=1;verticalAlign=middle;align=center;dashed=1;dashPattern=1 1;" parent="1" vertex="1">
                    <mxGeometry x="-542.75" y="555" width="214" height="40" as="geometry"/>
                </mxCell>
                <mxCell id="5" value="&lt;font style=&quot;font-size: 28px ; font-weight: normal&quot;&gt;Usage dependency&lt;/font&gt;" style="text;strokeColor=none;fillColor=none;html=1;fontSize=24;fontStyle=1;verticalAlign=middle;align=center;dashed=1;dashPattern=1 1;" parent="1" vertex="1">
                    <mxGeometry x="-561.25" y="606" width="251" height="40" as="geometry"/>
                </mxCell>
                <mxCell id="6" value="&lt;font style=&quot;font-size: 28px ; font-weight: normal&quot;&gt;Aggregation&lt;/font&gt;" style="text;strokeColor=none;fillColor=none;html=1;fontSize=24;fontStyle=1;verticalAlign=middle;align=center;dashed=1;dashPattern=1 1;" parent="1" vertex="1">
                    <mxGeometry x="-561.25" y="679" width="251" height="40" as="geometry"/>
                </mxCell>
                <mxCell id="7" value="&lt;font style=&quot;font-size: 28px ; font-weight: normal&quot;&gt;Composition (subpart of)&lt;/font&gt;" style="text;strokeColor=none;fillColor=none;html=1;fontSize=24;fontStyle=1;verticalAlign=middle;align=center;dashed=1;dashPattern=1 1;" parent="1" vertex="1">
                    <mxGeometry x="-606" y="743" width="334.5" height="40" as="geometry"/>
                </mxCell>
                <mxCell id="8" value="&lt;font style=&quot;font-size: 28px ; font-weight: normal&quot;&gt;Encapsulation&lt;/font&gt;" style="text;strokeColor=none;fillColor=none;html=1;fontSize=24;fontStyle=1;verticalAlign=middle;align=center;dashed=1;dashPattern=1 1;" parent="1" vertex="1">
                    <mxGeometry x="-603" y="805" width="334.5" height="40" as="geometry"/>
                </mxCell>
                <mxCell id="9" value="" style="endArrow=block;html=1;rounded=1;fontSize=28;endFill=0;edgeStyle=orthogonalEdgeStyle;jumpStyle=arc;" parent="1" edge="1">
                    <mxGeometry width="50" height="50" relative="1" as="geometry">
                        <mxPoint x="-262.75" y="460.5799999999999" as="sourcePoint"/>
                        <mxPoint x="-188.75" y="460.5799999999999" as="targetPoint"/>
                    </mxGeometry>
                </mxCell>
                <mxCell id="10" value="" style="endArrow=block;dashed=1;html=1;rounded=1;fontSize=28;endFill=0;edgeStyle=orthogonalEdgeStyle;jumpStyle=arc;" parent="1" edge="1">
                    <mxGeometry width="50" height="50" relative="1" as="geometry">
                        <mxPoint x="-262.75" y="523.5799999999999" as="sourcePoint"/>
                        <mxPoint x="-188.75" y="523.5799999999999" as="targetPoint"/>
                    </mxGeometry>
                </mxCell>
                <mxCell id="11" value="" style="endArrow=open;dashed=1;html=1;rounded=1;fontSize=28;endFill=0;edgeStyle=orthogonalEdgeStyle;jumpStyle=arc;" parent="1" edge="1">
                    <mxGeometry width="50" height="50" relative="1" as="geometry">
                        <mxPoint x="-261.74999999999955" y="625.5799999999999" as="sourcePoint"/>
                        <mxPoint x="-187.75" y="625.5799999999999" as="targetPoint"/>
                    </mxGeometry>
                </mxCell>
                <mxCell id="12" value="" style="endArrow=open;html=1;rounded=1;fontSize=28;endFill=0;edgeStyle=orthogonalEdgeStyle;jumpStyle=arc;" parent="1" edge="1">
                    <mxGeometry width="50" height="50" relative="1" as="geometry">
                        <mxPoint x="-260.75" y="574.5799999999999" as="sourcePoint"/>
                        <mxPoint x="-186.74999999999955" y="574.5799999999999" as="targetPoint"/>
                    </mxGeometry>
                </mxCell>
                <mxCell id="13" value="" style="endArrow=open;html=1;rounded=1;fontSize=28;endFill=0;startArrow=diamond;startFill=0;edgeStyle=orthogonalEdgeStyle;jumpStyle=arc;" parent="1" edge="1">
                    <mxGeometry width="50" height="50" relative="1" as="geometry">
                        <mxPoint x="-261.74999999999955" y="698.5799999999999" as="sourcePoint"/>
                        <mxPoint x="-187.75" y="698.5799999999999" as="targetPoint"/>
                    </mxGeometry>
                </mxCell>
                <mxCell id="14" value="" style="endArrow=open;html=1;rounded=1;fontSize=28;endFill=0;startArrow=diamond;startFill=1;edgeStyle=orthogonalEdgeStyle;jumpStyle=arc;" parent="1" edge="1">
                    <mxGeometry width="50" height="50" relative="1" as="geometry">
                        <mxPoint x="-259.75" y="762.5799999999999" as="sourcePoint"/>
                        <mxPoint x="-185.75" y="762.5799999999999" as="targetPoint"/>
                    </mxGeometry>
                </mxCell>
                <mxCell id="15" value="" style="endArrow=none;html=1;rounded=1;fontSize=28;endFill=0;startArrow=circlePlus;startFill=0;startSize=3;edgeStyle=orthogonalEdgeStyle;jumpStyle=arc;" parent="1" edge="1">
                    <mxGeometry width="50" height="50" relative="1" as="geometry">
                        <mxPoint x="-258.75" y="824.5799999999999" as="sourcePoint"/>
                        <mxPoint x="-184.75" y="824.5799999999999" as="targetPoint"/>
                    </mxGeometry>
                </mxCell>
                <mxCell id="16" value="" style="shape=image;verticalLabelPosition=bottom;labelBackgroundColor=#ffffff;verticalAlign=top;aspect=fixed;imageAspect=0;image=https://media.discordapp.net/attachments/893383594104459304/918099600647258122/access_modifiers_in_class_diagrams.png;" parent="1" vertex="1">
                    <mxGeometry x="-536.75" y="912" width="350" height="204" as="geometry"/>
                </mxCell>
                <mxCell id="17" value="Collisions" style="swimlane;fontStyle=1;align=center;verticalAlign=top;childLayout=stackLayout;horizontal=1;startSize=26;horizontalStack=0;resizeParent=1;resizeParentMax=0;resizeLast=0;collapsible=1;marginBottom=0;" parent="1" vertex="1">
                    <mxGeometry x="1151" y="2605" width="160" height="131" as="geometry"/>
                </mxCell>
                <mxCell id="18" value="- arrOut: Array&lt;Entity&gt;" style="text;strokeColor=none;fillColor=none;align=left;verticalAlign=top;spacingLeft=4;spacingRight=4;overflow=hidden;rotatable=0;points=[[0,0.5],[1,0.5]];portConstraint=eastwest;" parent="17" vertex="1">
                    <mxGeometry y="26" width="160" height="37" as="geometry"/>
                </mxCell>
                <mxCell id="19" value="" style="line;strokeWidth=1;fillColor=none;align=left;verticalAlign=middle;spacingTop=-1;spacingLeft=3;spacingRight=3;rotatable=0;labelPosition=right;points=[];portConstraint=eastwest;" parent="17" vertex="1">
                    <mxGeometry y="63" width="160" height="8" as="geometry"/>
                </mxCell>
                <mxCell id="20" value="+ move(Entity, float, float): void&#10;+ moveDelta(Entity, float, float, boolean x): void &#10;+ solid(int, int): boolean" style="text;strokeColor=none;fillColor=none;align=left;verticalAlign=top;spacingLeft=4;spacingRight=4;overflow=hidden;rotatable=0;points=[[0,0.5],[1,0.5]];portConstraint=eastwest;" parent="17" vertex="1">
                    <mxGeometry y="71" width="160" height="60" as="geometry"/>
                </mxCell>
                <mxCell id="21" value="Classname" style="swimlane;fontStyle=1;align=center;verticalAlign=top;childLayout=stackLayout;horizontal=1;startSize=26;horizontalStack=0;resizeParent=1;resizeParentMax=0;resizeLast=0;collapsible=1;marginBottom=0;" parent="1" vertex="1">
                    <mxGeometry x="-500" y="308" width="160" height="86" as="geometry"/>
                </mxCell>
                <mxCell id="22" value="+ field: type" style="text;strokeColor=none;fillColor=none;align=left;verticalAlign=top;spacingLeft=4;spacingRight=4;overflow=hidden;rotatable=0;points=[[0,0.5],[1,0.5]];portConstraint=eastwest;" parent="21" vertex="1">
                    <mxGeometry y="26" width="160" height="26" as="geometry"/>
                </mxCell>
                <mxCell id="23" value="" style="line;strokeWidth=1;fillColor=none;align=left;verticalAlign=middle;spacingTop=-1;spacingLeft=3;spacingRight=3;rotatable=0;labelPosition=right;points=[];portConstraint=eastwest;" parent="21" vertex="1">
                    <mxGeometry y="52" width="160" height="8" as="geometry"/>
                </mxCell>
                <mxCell id="24" value="+ method(type): type" style="text;strokeColor=none;fillColor=none;align=left;verticalAlign=top;spacingLeft=4;spacingRight=4;overflow=hidden;rotatable=0;points=[[0,0.5],[1,0.5]];portConstraint=eastwest;" parent="21" vertex="1">
                    <mxGeometry y="60" width="160" height="26" as="geometry"/>
                </mxCell>
                <mxCell id="241" style="edgeStyle=orthogonalEdgeStyle;html=1;endArrow=open;endFill=0;dashed=1;fontSize=28;startArrow=none;" parent="1" source="92" target="47" edge="1">
                    <mxGeometry relative="1" as="geometry">
                        <Array as="points">
                            <mxPoint x="919" y="2260"/>
                            <mxPoint x="919" y="2260"/>
                        </Array>
                    </mxGeometry>
                </mxCell>
                <mxCell id="257" style="edgeStyle=orthogonalEdgeStyle;jumpStyle=arc;html=1;exitDx=0;exitDy=0;startArrow=none;startFill=0;endArrow=open;endFill=0;dashed=1;" parent="1" source="30" target="34" edge="1">
                    <mxGeometry relative="1" as="geometry">
                        <Array as="points">
                            <mxPoint x="126" y="2479"/>
                            <mxPoint x="126" y="2479"/>
                        </Array>
                    </mxGeometry>
                </mxCell>
                <mxCell id="261" style="edgeStyle=orthogonalEdgeStyle;html=1;fontSize=28;endFill=0;endArrow=open;startFill=1;startArrow=diamond;" parent="1" source="30" target="131" edge="1">
                    <mxGeometry relative="1" as="geometry">
                        <Array as="points">
                            <mxPoint x="229" y="2172"/>
                            <mxPoint x="229" y="2172"/>
                        </Array>
                    </mxGeometry>
                </mxCell>
                <mxCell id="30" value="Effect" style="swimlane;fontStyle=1;align=center;verticalAlign=top;childLayout=stackLayout;horizontal=1;startSize=26;horizontalStack=0;resizeParent=1;resizeParentMax=0;resizeLast=0;collapsible=1;marginBottom=0;" parent="1" vertex="1">
                    <mxGeometry x="49" y="2196" width="305" height="210" as="geometry">
                        <mxRectangle x="890" y="583" width="60" height="26" as="alternateBounds"/>
                    </mxGeometry>
                </mxCell>
                <mxCell id="31" value="+ id: int &#10;+ renderer: Cons&lt;EffectContainer&gt; &#10;+ lifetime: float &#10;+ size: float &#10;+ ground: boolean &#10;+ groundDuration: float " style="text;strokeColor=none;fillColor=none;align=left;verticalAlign=top;spacingLeft=4;spacingRight=4;overflow=hidden;rotatable=0;points=[[0,0.5],[1,0.5]];portConstraint=eastwest;" parent="30" vertex="1">
                    <mxGeometry y="26" width="305" height="105" as="geometry"/>
                </mxCell>
                <mxCell id="32" value="" style="line;strokeWidth=1;fillColor=none;align=left;verticalAlign=middle;spacingTop=-1;spacingLeft=3;spacingRight=3;rotatable=0;labelPosition=right;points=[];portConstraint=eastwest;" parent="30" vertex="1">
                    <mxGeometry y="131" width="305" height="8" as="geometry"/>
                </mxCell>
                <mxCell id="33" value="+ ground(float): Effect&#10;+ at([Multiple overloads]): void&#10;+ render(int, color, float, float, float, float, Object): void&#10;+ create(float, float float, Color, Object): void" style="text;strokeColor=none;fillColor=none;align=left;verticalAlign=top;spacingLeft=4;spacingRight=4;overflow=hidden;rotatable=0;points=[[0,0.5],[1,0.5]];portConstraint=eastwest;" parent="30" vertex="1">
                    <mxGeometry y="139" width="305" height="71" as="geometry"/>
                </mxCell>
                <mxCell id="156" style="edgeStyle=orthogonalEdgeStyle;html=1;dashed=1;fontSize=28;endFill=0;endArrow=open;" parent="1" source="34" target="30" edge="1">
                    <mxGeometry relative="1" as="geometry">
                        <mxPoint x="-331" y="2188" as="targetPoint"/>
                        <Array as="points">
                            <mxPoint x="155" y="2478"/>
                            <mxPoint x="155" y="2478"/>
                        </Array>
                    </mxGeometry>
                </mxCell>
                <mxCell id="242" style="edgeStyle=orthogonalEdgeStyle;html=1;endArrow=block;endFill=0;fontSize=28;fillColor=#1ba1e2;strokeColor=#006EAF;" parent="1" source="34" target="72" edge="1">
                    <mxGeometry relative="1" as="geometry">
                        <mxPoint x="940.8333333333335" y="2983" as="targetPoint"/>
                        <Array as="points">
                            <mxPoint x="113" y="2635"/>
                            <mxPoint x="113" y="2635"/>
                        </Array>
                    </mxGeometry>
                </mxCell>
                <mxCell id="255" style="edgeStyle=orthogonalEdgeStyle;jumpStyle=arc;html=1;exitDx=0;exitDy=0;entryDx=0;entryDy=0;startArrow=diamond;startFill=1;endArrow=open;endFill=0;" parent="1" source="34" target="30" edge="1">
                    <mxGeometry relative="1" as="geometry">
                        <Array as="points">
                            <mxPoint x="96" y="2479"/>
                            <mxPoint x="96" y="2479"/>
                        </Array>
                    </mxGeometry>
                </mxCell>
                <mxCell id="34" value="EffectEntity" style="swimlane;fontStyle=1;align=center;verticalAlign=top;childLayout=stackLayout;horizontal=1;startSize=26;horizontalStack=0;resizeParent=1;resizeParentMax=0;resizeLast=0;collapsible=1;marginBottom=0;" parent="1" vertex="1">
                    <mxGeometry x="54" y="2486" width="160" height="130" as="geometry"/>
                </mxCell>
                <mxCell id="35" value="+ effect: Effect&#10;+ rotation: float&#10;+ color: Color&#10;+ data: Object" style="text;strokeColor=none;fillColor=none;align=left;verticalAlign=top;spacingLeft=4;spacingRight=4;overflow=hidden;rotatable=0;points=[[0,0.5],[1,0.5]];portConstraint=eastwest;" parent="34" vertex="1">
                    <mxGeometry y="26" width="160" height="70" as="geometry"/>
                </mxCell>
                <mxCell id="36" value="" style="line;strokeWidth=1;fillColor=none;align=left;verticalAlign=middle;spacingTop=-1;spacingLeft=3;spacingRight=3;rotatable=0;labelPosition=right;points=[];portConstraint=eastwest;" parent="34" vertex="1">
                    <mxGeometry y="96" width="160" height="8" as="geometry"/>
                </mxCell>
                <mxCell id="37" value="+ draw(): void" style="text;strokeColor=none;fillColor=none;align=left;verticalAlign=top;spacingLeft=4;spacingRight=4;overflow=hidden;rotatable=0;points=[[0,0.5],[1,0.5]];portConstraint=eastwest;" parent="34" vertex="1">
                    <mxGeometry y="104" width="160" height="26" as="geometry"/>
                </mxCell>
                <mxCell id="130" style="edgeStyle=orthogonalEdgeStyle;html=1;exitDx=0;exitDy=0;entryDx=0;entryDy=0;endArrow=none;endFill=0;startArrow=circlePlus;startFill=0;startSize=3;fillColor=#e3c800;strokeColor=#B09500;" parent="1" source="38" target="126" edge="1">
                    <mxGeometry relative="1" as="geometry">
                        <Array as="points">
                            <mxPoint x="1038" y="2793"/>
                        </Array>
                    </mxGeometry>
                </mxCell>
                <mxCell id="172" style="edgeStyle=orthogonalEdgeStyle;html=1;entryDx=0;entryDy=0;endArrow=block;endFill=0;fillColor=#1ba1e2;strokeColor=#006EAF;" parent="1" source="38" target="47" edge="1">
                    <mxGeometry relative="1" as="geometry">
                        <Array as="points">
                            <mxPoint x="921" y="2812"/>
                        </Array>
                    </mxGeometry>
                </mxCell>
                <mxCell id="228" style="edgeStyle=orthogonalEdgeStyle;html=1;endArrow=open;endFill=0;dashed=1;fontSize=28;" parent="1" source="38" target="30" edge="1">
                    <mxGeometry relative="1" as="geometry">
                        <Array as="points">
                            <mxPoint x="1454" y="3032"/>
                            <mxPoint x="257" y="3032"/>
                        </Array>
                    </mxGeometry>
                </mxCell>
                <mxCell id="229" style="edgeStyle=orthogonalEdgeStyle;html=1;entryDx=0;entryDy=0;endArrow=open;endFill=0;dashed=1;fontSize=28;entryPerimeter=0;jumpStyle=arc;" parent="1" source="38" target="52" edge="1">
                    <mxGeometry relative="1" as="geometry">
                        <Array as="points">
                            <mxPoint x="1637" y="2810"/>
                            <mxPoint x="1637" y="1929"/>
                        </Array>
                    </mxGeometry>
                </mxCell>
                <mxCell id="248" style="edgeStyle=orthogonalEdgeStyle;html=1;exitDx=0;exitDy=0;entryDx=0;entryDy=0;dashed=1;endArrow=open;endFill=0;" parent="1" source="38" target="126" edge="1">
                    <mxGeometry relative="1" as="geometry">
                        <Array as="points">
                            <mxPoint x="1056" y="2779"/>
                        </Array>
                    </mxGeometry>
                </mxCell>
                <mxCell id="278" style="edgeStyle=orthogonalEdgeStyle;jumpStyle=arc;html=1;dashed=1;fontSize=28;endFill=0;endArrow=open;" parent="1" source="38" target="271" edge="1">
                    <mxGeometry relative="1" as="geometry">
                        <Array as="points">
                            <mxPoint x="393" y="3015"/>
                        </Array>
                    </mxGeometry>
                </mxCell>
                <mxCell id="38" value="Enemy" style="swimlane;fontStyle=1;align=center;verticalAlign=top;childLayout=stackLayout;horizontal=1;startSize=26;horizontalStack=0;resizeParent=1;resizeParentMax=0;resizeLast=0;collapsible=1;marginBottom=0;" parent="1" vertex="1">
                    <mxGeometry x="1354" y="2766" width="158" height="275" as="geometry"/>
                </mxCell>
                <mxCell id="39" value="+ count: int&#10;+ health: float&#10;+ hitTime: float&#10;+ size: float&#10;+ hitColor: Color" style="text;strokeColor=none;fillColor=none;align=left;verticalAlign=top;spacingLeft=4;spacingRight=4;overflow=hidden;rotatable=0;points=[[0,0.5],[1,0.5]];portConstraint=eastwest;" parent="38" vertex="1">
                    <mxGeometry y="26" width="158" height="82" as="geometry"/>
                </mxCell>
                <mxCell id="40" value="" style="line;strokeWidth=1;fillColor=none;align=left;verticalAlign=middle;spacingTop=-1;spacingLeft=3;spacingRight=3;rotatable=0;labelPosition=right;points=[];portConstraint=eastwest;" parent="38" vertex="1">
                    <mxGeometry y="108" width="158" height="8" as="geometry"/>
                </mxCell>
                <mxCell id="41" value="+ damage(float): void&#10;+ hitbox(Rect): void&#10;+ drops(): Array&lt;Drop&gt;&#10;+ clicked(): void&#10;+ update(): void&#10;+ killed(): void&#10;+ hitEffect(): Effect&#10;+ deathEffect(): Effect" style="text;strokeColor=none;fillColor=none;align=left;verticalAlign=top;spacingLeft=4;spacingRight=4;overflow=hidden;rotatable=0;points=[[0,0.5],[1,0.5]];portConstraint=eastwest;" parent="38" vertex="1">
                    <mxGeometry y="116" width="158" height="159" as="geometry"/>
                </mxCell>
                <mxCell id="231" style="edgeStyle=orthogonalEdgeStyle;html=1;endArrow=openThin;endFill=0;jumpStyle=arc;fillColor=#fad9d5;strokeColor=#ae4132;startArrow=none;" parent="1" source="96" target="47" edge="1">
                    <mxGeometry relative="1" as="geometry">
                        <Array as="points">
                            <mxPoint x="701" y="2569"/>
                            <mxPoint x="701" y="2569"/>
                        </Array>
                    </mxGeometry>
                </mxCell>
                <mxCell id="233" style="edgeStyle=orthogonalEdgeStyle;html=1;endArrow=open;endFill=0;dashed=1;fontSize=28;" parent="1" source="42" target="30" edge="1">
                    <mxGeometry relative="1" as="geometry">
                        <Array as="points">
                            <mxPoint x="280" y="2374"/>
                            <mxPoint x="280" y="2374"/>
                        </Array>
                    </mxGeometry>
                </mxCell>
                <mxCell id="234" style="edgeStyle=orthogonalEdgeStyle;html=1;endArrow=open;endFill=0;dashed=1;fontSize=28;" parent="1" source="42" target="52" edge="1">
                    <mxGeometry relative="1" as="geometry">
                        <Array as="points">
                            <mxPoint x="564" y="2231"/>
                            <mxPoint x="564" y="2231"/>
                        </Array>
                    </mxGeometry>
                </mxCell>
                <mxCell id="276" style="edgeStyle=orthogonalEdgeStyle;html=1;dashed=1;fontSize=28;endFill=0;endArrow=open;jumpStyle=arc;" parent="1" source="42" target="271" edge="1">
                    <mxGeometry relative="1" as="geometry">
                        <Array as="points">
                            <mxPoint x="448" y="2130"/>
                            <mxPoint x="448" y="2130"/>
                        </Array>
                    </mxGeometry>
                </mxCell>
                <mxCell id="42" value="Fire" style="swimlane;fontStyle=1;align=center;verticalAlign=top;childLayout=stackLayout;horizontal=1;startSize=26;horizontalStack=0;resizeParent=1;resizeParentMax=0;resizeLast=0;collapsible=1;marginBottom=0;" parent="1" vertex="1">
                    <mxGeometry x="429" y="2300" width="167" height="129" as="geometry"/>
                </mxCell>
                <mxCell id="43" value="+ heat: float&#10;+ smoothHeat: float" style="text;strokeColor=none;fillColor=none;align=left;verticalAlign=top;spacingLeft=4;spacingRight=4;overflow=hidden;rotatable=0;points=[[0,0.5],[1,0.5]];portConstraint=eastwest;" parent="42" vertex="1">
                    <mxGeometry y="26" width="167" height="40" as="geometry"/>
                </mxCell>
                <mxCell id="44" value="" style="line;strokeWidth=1;fillColor=none;align=left;verticalAlign=middle;spacingTop=-1;spacingLeft=3;spacingRight=3;rotatable=0;labelPosition=right;points=[];portConstraint=eastwest;" parent="42" vertex="1">
                    <mxGeometry y="66" width="167" height="7" as="geometry"/>
                </mxCell>
                <mxCell id="45" value="+ clicked(): void&#10;+ update(): void&#10;+ draw(): void" style="text;strokeColor=none;fillColor=none;align=left;verticalAlign=top;spacingLeft=4;spacingRight=4;overflow=hidden;rotatable=0;points=[[0,0.5],[1,0.5]];portConstraint=eastwest;" parent="42" vertex="1">
                    <mxGeometry y="73" width="167" height="56" as="geometry"/>
                </mxCell>
                <mxCell id="47" value="Entity" style="swimlane;fontStyle=1;align=center;verticalAlign=top;childLayout=stackLayout;horizontal=1;startSize=26;horizontalStack=0;resizeParent=1;resizeParentMax=0;resizeLast=0;collapsible=1;marginBottom=0;" parent="1" vertex="1">
                    <mxGeometry x="761" y="2285" width="171" height="397" as="geometry"/>
                </mxCell>
                <mxCell id="48" value="+ id: int&#10;+ x, y, telecharge: float&#10;+ added: boolean" style="text;strokeColor=none;fillColor=none;align=left;verticalAlign=top;spacingLeft=4;spacingRight=4;overflow=hidden;rotatable=0;points=[[0,0.5],[1,0.5]];portConstraint=eastwest;" parent="47" vertex="1">
                    <mxGeometry y="26" width="171" height="57" as="geometry"/>
                </mxCell>
                <mxCell id="49" value="" style="line;strokeWidth=1;fillColor=none;align=left;verticalAlign=middle;spacingTop=-1;spacingLeft=3;spacingRight=3;rotatable=0;labelPosition=right;points=[];portConstraint=eastwest;" parent="47" vertex="1">
                    <mxGeometry y="83" width="171" height="8" as="geometry"/>
                </mxCell>
                <mxCell id="50" value="+ tile(): Tile&#10;+ solid(): boolean&#10;+ height(): float&#10;+ canTeleport(): boolean&#10;+ move(): void&#10;+ interactX(): float&#10;+ interactY(): float&#10;+ clipSize(): float&#10;+ top(): Position&#10;+ move(float x, float y)(): void&#10;+ hitbox(Rect rect)(): void&#10;+ tileHit(Rect rect)(): Rect&#10;+ update(): void&#10;+ draw(): void&#10;+ drawShadow(): void&#10;+ updateTeleport(): void&#10;+ clicked(): void&#10;+ clickable(): boolean&#10;+ add(): void&#10;+ remove(): void&#10;+ set(): void" style="text;strokeColor=none;fillColor=none;align=left;verticalAlign=top;spacingLeft=4;spacingRight=4;overflow=hidden;rotatable=0;points=[[0,0.5],[1,0.5]];portConstraint=eastwest;" parent="47" vertex="1">
                    <mxGeometry y="91" width="171" height="306" as="geometry"/>
                </mxCell>
                <mxCell id="243" style="edgeStyle=orthogonalEdgeStyle;html=1;endArrow=open;endFill=0;dashed=1;fontSize=28;" parent="1" source="52" target="30" edge="1">
                    <mxGeometry relative="1" as="geometry">
                        <Array as="points">
                            <mxPoint x="516" y="2090"/>
                            <mxPoint x="516" y="2213"/>
                        </Array>
                    </mxGeometry>
                </mxCell>
                <mxCell id="244" style="edgeStyle=orthogonalEdgeStyle;html=1;entryDx=0;entryDy=0;endArrow=open;endFill=0;entryPerimeter=0;fontSize=28;startFill=1;startArrow=diamond;fillColor=#60a917;strokeColor=#2D7600;" parent="1" source="52" target="30" edge="1">
                    <mxGeometry relative="1" as="geometry">
                        <Array as="points">
                            <mxPoint x="495" y="2067"/>
                            <mxPoint x="495" y="2199"/>
                        </Array>
                    </mxGeometry>
                </mxCell>
                <mxCell id="279" style="edgeStyle=orthogonalEdgeStyle;jumpStyle=arc;html=1;endArrow=open;endFill=0;dashed=1;" parent="1" source="52" target="271" edge="1">
                    <mxGeometry relative="1" as="geometry">
                        <Array as="points">
                            <mxPoint x="489" y="2005"/>
                        </Array>
                    </mxGeometry>
                </mxCell>
                <mxCell id="52" value="Fx" style="swimlane;fontStyle=1;align=center;verticalAlign=top;childLayout=stackLayout;horizontal=1;startSize=26;horizontalStack=0;resizeParent=1;resizeParentMax=0;resizeLast=0;collapsible=1;marginBottom=0;" parent="1" vertex="1">
                    <mxGeometry x="551" y="1896" width="204" height="277" as="geometry"/>
                </mxCell>
                <mxCell id="53" value="+ fireballs: Effect&#10;~ hairBurn: Effect&#10;~ unlok: Effect&#10;~ fire: Effect&#10;~ snowAttack: Effect&#10;~ spark: Effect&#10;~ teleported: Effect&#10;~ track: Effect&#10;~ breath: Effect&#10;~ pickup: Effect&#10;~ itemMove: Effect&#10;~ itemThrow: Effect&#10;~ chargeShot: Effect&#10;~ hitSnow: Effect&#10;~ chop: Effect&#10;~ mine: Effect&#10;~ deathsnow: Effect" style="text;strokeColor=none;fillColor=none;align=left;verticalAlign=top;spacingLeft=4;spacingRight=4;overflow=hidden;rotatable=0;points=[[0,0.5],[1,0.5]];portConstraint=eastwest;" parent="52" vertex="1">
                    <mxGeometry y="26" width="204" height="251" as="geometry"/>
                </mxCell>
                <mxCell id="175" style="edgeStyle=orthogonalEdgeStyle;html=1;entryDx=0;entryDy=0;endArrow=block;endFill=0;fillColor=#1ba1e2;strokeColor=#006EAF;" parent="1" source="68" target="76" edge="1">
                    <mxGeometry relative="1" as="geometry">
                        <Array as="points">
                            <mxPoint x="860" y="2815"/>
                            <mxPoint x="841" y="2815"/>
                        </Array>
                    </mxGeometry>
                </mxCell>
                <mxCell id="72" value="TimedEntity" style="swimlane;fontStyle=3;align=center;verticalAlign=top;childLayout=stackLayout;horizontal=1;startSize=26;horizontalStack=0;resizeParent=1;resizeParentMax=0;resizeLast=0;collapsible=1;marginBottom=0;" parent="1" vertex="1">
                    <mxGeometry x="56" y="2640" width="160" height="105" as="geometry"/>
                </mxCell>
                <mxCell id="73" value="+ lifetime, time: float" style="text;strokeColor=none;fillColor=none;align=left;verticalAlign=top;spacingLeft=4;spacingRight=4;overflow=hidden;rotatable=0;points=[[0,0.5],[1,0.5]];portConstraint=eastwest;" parent="72" vertex="1">
                    <mxGeometry y="26" width="160" height="26" as="geometry"/>
                </mxCell>
                <mxCell id="74" value="" style="line;strokeWidth=1;fillColor=none;align=left;verticalAlign=middle;spacingTop=-1;spacingLeft=3;spacingRight=3;rotatable=0;labelPosition=right;points=[];portConstraint=eastwest;" parent="72" vertex="1">
                    <mxGeometry y="52" width="160" height="8" as="geometry"/>
                </mxCell>
                <mxCell id="75" value="+ update(): void&#10;+ fin(): float" style="text;strokeColor=none;fillColor=none;align=left;verticalAlign=top;spacingLeft=4;spacingRight=4;overflow=hidden;rotatable=0;points=[[0,0.5],[1,0.5]];portConstraint=eastwest;" parent="72" vertex="1">
                    <mxGeometry y="60" width="160" height="45" as="geometry"/>
                </mxCell>
                <mxCell id="190" style="edgeStyle=orthogonalEdgeStyle;jumpStyle=arc;html=1;entryDx=0;entryDy=0;endArrow=block;endFill=0;entryPerimeter=0;fillColor=#1ba1e2;strokeColor=#006EAF;" parent="1" source="76" target="47" edge="1">
                    <mxGeometry relative="1" as="geometry"/>
                </mxCell>
                <mxCell id="76" value="TileEntity" style="swimlane;fontStyle=1;align=center;verticalAlign=top;childLayout=stackLayout;horizontal=1;startSize=26;horizontalStack=0;resizeParent=1;resizeParentMax=0;resizeLast=0;collapsible=1;marginBottom=0;" parent="1" vertex="1">
                    <mxGeometry x="804" y="2712" width="85" height="78" as="geometry"/>
                </mxCell>
                <mxCell id="77" value="+ tile: Tile" style="text;strokeColor=none;fillColor=none;align=left;verticalAlign=top;spacingLeft=4;spacingRight=4;overflow=hidden;rotatable=0;points=[[0,0.5],[1,0.5]];portConstraint=eastwest;" parent="76" vertex="1">
                    <mxGeometry y="26" width="85" height="26" as="geometry"/>
                </mxCell>
                <mxCell id="270" value="+ tile: Tile" style="text;strokeColor=none;fillColor=none;align=left;verticalAlign=top;spacingLeft=4;spacingRight=4;overflow=hidden;rotatable=0;points=[[0,0.5],[1,0.5]];portConstraint=eastwest;" parent="76" vertex="1">
                    <mxGeometry y="52" width="85" height="26" as="geometry"/>
                </mxCell>
                <mxCell id="218" style="edgeStyle=orthogonalEdgeStyle;html=1;entryDx=0;entryDy=0;endArrow=block;endFill=0;fillColor=#1ba1e2;strokeColor=#006EAF;" parent="1" source="80" target="84" edge="1">
                    <mxGeometry relative="1" as="geometry">
                        <Array as="points">
                            <mxPoint x="1204" y="2502"/>
                            <mxPoint x="1433" y="2502"/>
                        </Array>
                    </mxGeometry>
                </mxCell>
                <mxCell id="246" style="endArrow=open;dashed=1;html=1;rounded=1;fontSize=28;endFill=0;edgeStyle=orthogonalEdgeStyle;jumpStyle=arc;entryDx=0;entryDy=0;exitDx=0;exitDy=0;" parent="1" source="88" target="126" edge="1">
                    <mxGeometry width="50" height="50" relative="1" as="geometry">
                        <mxPoint x="1610" y="2363" as="sourcePoint"/>
                        <mxPoint x="1048" y="2377" as="targetPoint"/>
                        <Array as="points">
                            <mxPoint x="1367" y="2268"/>
                            <mxPoint x="1062" y="2268"/>
                        </Array>
                    </mxGeometry>
                </mxCell>
                <mxCell id="249" style="edgeStyle=orthogonalEdgeStyle;html=1;fontSize=28;endFill=0;endArrow=open;startFill=1;startArrow=diamond;fillColor=#60a917;strokeColor=#2D7600;" parent="1" source="80" target="126" edge="1">
                    <mxGeometry relative="1" as="geometry">
                        <Array as="points">
                            <mxPoint x="1240" y="2289"/>
                            <mxPoint x="1091" y="2289"/>
                        </Array>
                    </mxGeometry>
                </mxCell>
                <mxCell id="80" value="SnowTitan" style="swimlane;fontStyle=1;align=center;verticalAlign=top;childLayout=stackLayout;horizontal=1;startSize=26;horizontalStack=0;resizeParent=1;resizeParentMax=0;resizeLast=0;collapsible=1;marginBottom=0;" parent="1" vertex="1">
                    <mxGeometry x="1129" y="2386" width="150" height="71" as="geometry"/>
                </mxCell>
                <mxCell id="83" value="+ drops(): Array&lt;Drop&gt;&#10;+ draw(): void" style="text;strokeColor=none;fillColor=none;align=left;verticalAlign=top;spacingLeft=4;spacingRight=4;overflow=hidden;rotatable=0;points=[[0,0.5],[1,0.5]];portConstraint=eastwest;" parent="80" vertex="1">
                    <mxGeometry y="26" width="150" height="45" as="geometry"/>
                </mxCell>
                <mxCell id="247" value="" style="endArrow=open;dashed=1;html=1;rounded=1;fontSize=28;endFill=0;edgeStyle=orthogonalEdgeStyle;jumpStyle=none;entryDx=0;entryDy=0;exitDx=0;exitDy=0;" parent="1" source="80" target="126" edge="1">
                    <mxGeometry width="50" height="50" relative="1" as="geometry">
                        <mxPoint x="1620" y="2373" as="sourcePoint"/>
                        <mxPoint x="1058" y="2387" as="targetPoint"/>
                        <Array as="points">
                            <mxPoint x="1204" y="2277"/>
                            <mxPoint x="1071" y="2277"/>
                        </Array>
                    </mxGeometry>
                </mxCell>
                <mxCell id="208" style="edgeStyle=orthogonalEdgeStyle;html=1;entryDx=0;entryDy=0;entryPerimeter=0;dashed=1;fontSize=28;endFill=0;endArrow=open;jumpStyle=arc;" parent="1" source="68" target="38" edge="1">
                    <mxGeometry relative="1" as="geometry">
                        <Array as="points">
                            <mxPoint x="1103" y="2879"/>
                            <mxPoint x="1103" y="2879"/>
                        </Array>
                    </mxGeometry>
                </mxCell>
                <mxCell id="217" style="edgeStyle=orthogonalEdgeStyle;html=1;entryDx=0;entryDy=0;endArrow=block;endFill=0;fillColor=#1ba1e2;strokeColor=#006EAF;" parent="1" source="88" target="84" edge="1">
                    <mxGeometry relative="1" as="geometry">
                        <Array as="points">
                            <mxPoint x="1367" y="2502"/>
                            <mxPoint x="1433" y="2502"/>
                        </Array>
                    </mxGeometry>
                </mxCell>
                <mxCell id="250" style="edgeStyle=orthogonalEdgeStyle;html=1;fontSize=28;endFill=0;endArrow=open;startFill=1;startArrow=diamond;fillColor=#60a917;strokeColor=#2D7600;" parent="1" source="88" target="126" edge="1">
                    <mxGeometry relative="1" as="geometry">
                        <Array as="points">
                            <mxPoint x="1401" y="2289"/>
                            <mxPoint x="1091" y="2289"/>
                        </Array>
                    </mxGeometry>
                </mxCell>
                <mxCell id="88" value="SnowArchdemon" style="swimlane;fontStyle=1;align=center;verticalAlign=top;childLayout=stackLayout;horizontal=1;startSize=26;horizontalStack=0;resizeParent=1;resizeParentMax=0;resizeLast=0;collapsible=1;marginBottom=0;" parent="1" vertex="1">
                    <mxGeometry x="1299" y="2378" width="135" height="94" as="geometry"/>
                </mxCell>
                <mxCell id="91" value="+ damage(): float&#10;+ speed(): float&#10;+ drops(): Array&lt;Drop&gt;&#10;+ draw(): void" style="text;strokeColor=none;fillColor=none;align=left;verticalAlign=top;spacingLeft=4;spacingRight=4;overflow=hidden;rotatable=0;points=[[0,0.5],[1,0.5]];portConstraint=eastwest;" parent="88" vertex="1">
                    <mxGeometry y="26" width="135" height="68" as="geometry"/>
                </mxCell>
                <mxCell id="237" style="edgeStyle=orthogonalEdgeStyle;html=1;endArrow=block;endFill=0;fontSize=28;jumpStyle=arc;fillColor=#1ba1e2;strokeColor=#006EAF;" parent="1" source="96" target="47" edge="1">
                    <mxGeometry relative="1" as="geometry">
                        <Array as="points">
                            <mxPoint x="748" y="2551"/>
                            <mxPoint x="748" y="2551"/>
                        </Array>
                    </mxGeometry>
                </mxCell>
                <mxCell id="104" value="" style="endArrow=open;html=1;rounded=1;fontSize=28;endFill=0;edgeStyle=orthogonalEdgeStyle;jumpStyle=arc;exitDx=0;exitDy=0;entryDx=0;entryDy=0;entryPerimeter=0;startFill=0;startArrow=diamond;fillColor=#60a917;strokeColor=#2D7600;" parent="1" source="17" target="47" edge="1">
                    <mxGeometry width="50" height="50" relative="1" as="geometry">
                        <mxPoint x="-704.75" y="2162.64" as="sourcePoint"/>
                        <mxPoint x="-630.7499999999995" y="2162.64" as="targetPoint"/>
                        <Array as="points">
                            <mxPoint x="1205" y="2648"/>
                        </Array>
                    </mxGeometry>
                </mxCell>
                <mxCell id="251" style="edgeStyle=orthogonalEdgeStyle;html=1;fontSize=28;endFill=0;endArrow=open;startFill=1;startArrow=diamond;fillColor=#60a917;strokeColor=#2D7600;" parent="1" source="107" target="126" edge="1">
                    <mxGeometry relative="1" as="geometry">
                        <Array as="points">
                            <mxPoint x="1558" y="2289"/>
                            <mxPoint x="1091" y="2289"/>
                        </Array>
                    </mxGeometry>
                </mxCell>
                <mxCell id="107" value="Crystal" style="swimlane;fontStyle=1;align=center;verticalAlign=top;childLayout=stackLayout;horizontal=1;startSize=26;horizontalStack=0;resizeParent=1;resizeParentMax=0;resizeLast=0;collapsible=1;marginBottom=0;" parent="1" vertex="1">
                    <mxGeometry x="1447" y="2374" width="140" height="85" as="geometry"/>
                </mxCell>
                <mxCell id="110" value="+ speed(): float&#10;+ drops(): Array&lt;Drop&gt;&#10;+ draw(): void" style="text;strokeColor=none;fillColor=none;align=left;verticalAlign=top;spacingLeft=4;spacingRight=4;overflow=hidden;rotatable=0;points=[[0,0.5],[1,0.5]];portConstraint=eastwest;" parent="107" vertex="1">
                    <mxGeometry y="26" width="140" height="59" as="geometry"/>
                </mxCell>
                <mxCell id="121" value="" style="endArrow=block;html=1;rounded=1;fontSize=28;endFill=0;edgeStyle=orthogonalEdgeStyle;jumpStyle=arc;exitDx=0;exitDy=0;entryDx=0;entryDy=0;entryPerimeter=0;fillColor=#1ba1e2;strokeColor=#006EAF;" parent="1" source="107" target="84" edge="1">
                    <mxGeometry width="50" height="50" relative="1" as="geometry">
                        <mxPoint x="-422.75" y="2253.58" as="sourcePoint"/>
                        <mxPoint x="-348.7500000000002" y="2253.58" as="targetPoint"/>
                        <Array as="points">
                            <mxPoint x="1517" y="2502"/>
                            <mxPoint x="1433" y="2502"/>
                        </Array>
                    </mxGeometry>
                </mxCell>
                <mxCell id="126" value="Drop" style="swimlane;fontStyle=1;align=center;verticalAlign=top;childLayout=stackLayout;horizontal=1;startSize=26;horizontalStack=0;resizeParent=1;resizeParentMax=0;resizeLast=0;collapsible=1;marginBottom=0;" parent="1" vertex="1">
                    <mxGeometry x="966" y="2359" width="144" height="66" as="geometry"/>
                </mxCell>
                <mxCell id="127" value="+ item: Item&#10;+ chance: double&#10;" style="text;strokeColor=none;fillColor=none;align=left;verticalAlign=top;spacingLeft=4;spacingRight=4;overflow=hidden;rotatable=0;points=[[0,0.5],[1,0.5]];portConstraint=eastwest;" parent="126" vertex="1">
                    <mxGeometry y="26" width="144" height="40" as="geometry"/>
                </mxCell>
                <mxCell id="260" style="edgeStyle=orthogonalEdgeStyle;html=1;dashed=1;fontSize=28;endFill=0;endArrow=open;" parent="1" source="30" target="131" edge="1">
                    <mxGeometry relative="1" as="geometry">
                        <Array as="points">
                            <mxPoint x="202" y="2169"/>
                            <mxPoint x="202" y="2169"/>
                        </Array>
                    </mxGeometry>
                </mxCell>
                <mxCell id="131" value="EffectContainer" style="swimlane;fontStyle=1;align=center;verticalAlign=top;childLayout=stackLayout;horizontal=1;startSize=26;horizontalStack=0;resizeParent=1;resizeParentMax=0;resizeLast=0;collapsible=1;marginBottom=0;" parent="1" vertex="1">
                    <mxGeometry x="53" y="1896" width="318" height="244" as="geometry"/>
                </mxCell>
                <mxCell id="132" value="+ x: float&#10;+ y: float&#10;+ time: float&#10;+ lifetime: float&#10;+ rotation: float&#10;+ color: Color&#10;+ id: int&#10;+ data: Object&#10;+ innerContainer: EffectContainer" style="text;strokeColor=none;fillColor=none;align=left;verticalAlign=top;spacingLeft=4;spacingRight=4;overflow=hidden;rotatable=0;points=[[0,0.5],[1,0.5]];portConstraint=eastwest;" parent="131" vertex="1">
                    <mxGeometry y="26" width="318" height="137" as="geometry"/>
                </mxCell>
                <mxCell id="133" value="" style="line;strokeWidth=1;fillColor=none;align=left;verticalAlign=middle;spacingTop=-1;spacingLeft=3;spacingRight=3;rotatable=0;labelPosition=right;points=[];portConstraint=eastwest;" parent="131" vertex="1">
                    <mxGeometry y="163" width="318" height="8" as="geometry"/>
                </mxCell>
                <mxCell id="134" value="+ set(int, Color, float, float, float, float, float, Object): void&#10;+ data(): T&#10;+ scaled(float, Cons&lt;EffectContainer&gt;): void&#10;+ fin(): float" style="text;strokeColor=none;fillColor=none;align=left;verticalAlign=top;spacingLeft=4;spacingRight=4;overflow=hidden;rotatable=0;points=[[0,0.5],[1,0.5]];portConstraint=eastwest;" parent="131" vertex="1">
                    <mxGeometry y="171" width="318" height="73" as="geometry"/>
                </mxCell>
                <mxCell id="135" style="edgeStyle=orthogonalEdgeStyle;html=1;entryDx=0;entryDy=0;fontSize=28;endFill=0;endArrow=none;startFill=0;startArrow=circlePlus;startSize=3;fillColor=#e3c800;strokeColor=#B09500;" parent="1" source="30" target="131" edge="1">
                    <mxGeometry relative="1" as="geometry">
                        <mxPoint x="-109" y="1774" as="sourcePoint"/>
                        <mxPoint x="1141" y="3759.036" as="targetPoint"/>
                        <Array as="points">
                            <mxPoint x="176" y="2177"/>
                            <mxPoint x="176" y="2177"/>
                        </Array>
                    </mxGeometry>
                </mxCell>
                <mxCell id="136" value="" style="endArrow=open;dashed=1;html=1;rounded=1;fontSize=28;endFill=0;edgeStyle=orthogonalEdgeStyle;jumpStyle=arc;entryDx=0;entryDy=0;exitDx=0;exitDy=0;" parent="1" source="107" target="126" edge="1">
                    <mxGeometry width="50" height="50" relative="1" as="geometry">
                        <mxPoint x="-508.7499999999998" y="2200.58" as="sourcePoint"/>
                        <mxPoint x="-434.75" y="2200.58" as="targetPoint"/>
                        <Array as="points">
                            <mxPoint x="1517" y="2257"/>
                            <mxPoint x="1052" y="2257"/>
                        </Array>
                    </mxGeometry>
                </mxCell>
                <mxCell id="149" value="«enum»&#10;Dir" style="swimlane;fontStyle=1;align=center;verticalAlign=top;childLayout=stackLayout;horizontal=1;startSize=39;horizontalStack=0;resizeParent=1;resizeParentMax=0;resizeLast=0;collapsible=1;marginBottom=0;" parent="1" vertex="1">
                    <mxGeometry x="1117" y="1983" width="160" height="131" as="geometry"/>
                </mxCell>
                <mxCell id="150" value="+ flip, y: boolean&#10;+ suffix: String&#10;+ direction: Vec2" style="text;strokeColor=none;fillColor=none;align=left;verticalAlign=top;spacingLeft=4;spacingRight=4;overflow=hidden;rotatable=0;points=[[0,0.5],[1,0.5]];portConstraint=eastwest;" parent="149" vertex="1">
                    <mxGeometry y="39" width="160" height="58" as="geometry"/>
                </mxCell>
                <mxCell id="151" value="" style="line;strokeWidth=1;fillColor=none;align=left;verticalAlign=middle;spacingTop=-1;spacingLeft=3;spacingRight=3;rotatable=0;labelPosition=right;points=[];portConstraint=eastwest;" parent="149" vertex="1">
                    <mxGeometry y="97" width="160" height="8" as="geometry"/>
                </mxCell>
                <mxCell id="152" value="+ angle(float): DIr" style="text;strokeColor=none;fillColor=none;align=left;verticalAlign=top;spacingLeft=4;spacingRight=4;overflow=hidden;rotatable=0;points=[[0,0.5],[1,0.5]];portConstraint=eastwest;" parent="149" vertex="1">
                    <mxGeometry y="105" width="160" height="26" as="geometry"/>
                </mxCell>
                <mxCell id="155" value="" style="endArrow=open;html=1;rounded=1;fontSize=28;endFill=0;edgeStyle=orthogonalEdgeStyle;jumpStyle=arc;fillColor=#fad9d5;strokeColor=#ae4132;" parent="1" source="34" target="30" edge="1">
                    <mxGeometry width="50" height="50" relative="1" as="geometry">
                        <mxPoint x="740" y="3469" as="sourcePoint"/>
                        <mxPoint x="814.0000000000005" y="3469" as="targetPoint"/>
                        <Array as="points">
                            <mxPoint x="69" y="2480"/>
                            <mxPoint x="69" y="2480"/>
                        </Array>
                    </mxGeometry>
                </mxCell>
                <mxCell id="193" style="edgeStyle=orthogonalEdgeStyle;jumpStyle=arc;html=1;dashed=1;fontSize=28;endFill=0;endArrow=open;" parent="1" source="100" target="47" edge="1">
                    <mxGeometry relative="1" as="geometry">
                        <Array as="points">
                            <mxPoint x="771" y="2698"/>
                            <mxPoint x="771" y="2698"/>
                        </Array>
                    </mxGeometry>
                </mxCell>
                <mxCell id="176" style="edgeStyle=orthogonalEdgeStyle;html=1;entryDx=0;entryDy=0;endArrow=block;endFill=0;fillColor=#1ba1e2;strokeColor=#006EAF;" parent="1" source="100" target="76" edge="1">
                    <mxGeometry relative="1" as="geometry">
                        <Array as="points">
                            <mxPoint x="823" y="2816"/>
                            <mxPoint x="841" y="2816"/>
                        </Array>
                    </mxGeometry>
                </mxCell>
                <mxCell id="180" style="edgeStyle=orthogonalEdgeStyle;jumpStyle=arc;html=1;endArrow=block;endFill=0;fillColor=#1ba1e2;strokeColor=#006EAF;" parent="1" source="92" target="47" edge="1">
                    <mxGeometry relative="1" as="geometry">
                        <Array as="points">
                            <mxPoint x="899" y="2264"/>
                            <mxPoint x="899" y="2264"/>
                        </Array>
                    </mxGeometry>
                </mxCell>
                <mxCell id="221" style="edgeStyle=orthogonalEdgeStyle;html=1;endArrow=open;endFill=0;dashed=1;" parent="1" source="92" target="96" edge="1">
                    <mxGeometry relative="1" as="geometry">
                        <mxPoint x="381" y="3338" as="targetPoint"/>
                        <Array as="points">
                            <mxPoint x="649" y="2243"/>
                        </Array>
                    </mxGeometry>
                </mxCell>
                <mxCell id="223" style="edgeStyle=orthogonalEdgeStyle;html=1;entryDx=0;entryDy=0;dashed=1;endArrow=open;endFill=0;" parent="1" source="92" target="149" edge="1">
                    <mxGeometry relative="1" as="geometry">
                        <Array as="points">
                            <mxPoint x="1079" y="2093"/>
                            <mxPoint x="1079" y="2093"/>
                        </Array>
                    </mxGeometry>
                </mxCell>
                <mxCell id="224" style="edgeStyle=orthogonalEdgeStyle;html=1;dashed=1;endArrow=open;endFill=0;" parent="1" source="92" target="52" edge="1">
                    <mxGeometry relative="1" as="geometry">
                        <Array as="points">
                            <mxPoint x="804" y="2022"/>
                            <mxPoint x="804" y="2022"/>
                        </Array>
                    </mxGeometry>
                </mxCell>
                <mxCell id="194" style="edgeStyle=orthogonalEdgeStyle;jumpStyle=arc;html=1;dashed=1;fontSize=28;endFill=0;endArrow=open;" parent="1" source="100" target="30" edge="1">
                    <mxGeometry relative="1" as="geometry">
                        <Array as="points">
                            <mxPoint x="311" y="2926"/>
                        </Array>
                    </mxGeometry>
                </mxCell>
                <mxCell id="195" style="edgeStyle=orthogonalEdgeStyle;html=1;entryDx=0;entryDy=0;dashed=1;fontSize=28;endFill=0;endArrow=open;" parent="1" source="100" target="38" edge="1">
                    <mxGeometry relative="1" as="geometry">
                        <Array as="points">
                            <mxPoint x="760" y="2976"/>
                        </Array>
                    </mxGeometry>
                </mxCell>
                <mxCell id="196" style="edgeStyle=orthogonalEdgeStyle;html=1;entryDx=0;entryDy=0;dashed=1;fontSize=28;endFill=0;endArrow=open;jumpStyle=arc;" parent="1" source="100" target="52" edge="1">
                    <mxGeometry relative="1" as="geometry">
                        <Array as="points">
                            <mxPoint x="723" y="2500"/>
                            <mxPoint x="723" y="2500"/>
                        </Array>
                    </mxGeometry>
                </mxCell>
                <mxCell id="100" value="GemTorchEntity" style="swimlane;fontStyle=1;align=center;verticalAlign=top;childLayout=stackLayout;horizontal=1;startSize=26;horizontalStack=0;resizeParent=1;resizeParentMax=0;resizeLast=0;collapsible=1;marginBottom=0;" parent="1" vertex="1">
                    <mxGeometry x="680" y="2826" width="160" height="119" as="geometry"/>
                </mxCell>
                <mxCell id="101" value="~ time: Interval" style="text;strokeColor=none;fillColor=none;align=left;verticalAlign=top;spacingLeft=4;spacingRight=4;overflow=hidden;rotatable=0;points=[[0,0.5],[1,0.5]];portConstraint=eastwest;" parent="100" vertex="1">
                    <mxGeometry y="26" width="160" height="26" as="geometry"/>
                </mxCell>
                <mxCell id="102" value="" style="line;strokeWidth=1;fillColor=none;align=left;verticalAlign=middle;spacingTop=-1;spacingLeft=3;spacingRight=3;rotatable=0;labelPosition=right;points=[];portConstraint=eastwest;" parent="100" vertex="1">
                    <mxGeometry y="52" width="160" height="8" as="geometry"/>
                </mxCell>
                <mxCell id="103" value="+ update(): void&#10;+ draw(): void&#10;+ clipSize(): type" style="text;strokeColor=none;fillColor=none;align=left;verticalAlign=top;spacingLeft=4;spacingRight=4;overflow=hidden;rotatable=0;points=[[0,0.5],[1,0.5]];portConstraint=eastwest;" parent="100" vertex="1">
                    <mxGeometry y="60" width="160" height="59" as="geometry"/>
                </mxCell>
                <mxCell id="212" value="" style="edgeStyle=orthogonalEdgeStyle;html=1;dashed=1;fontSize=28;endFill=0;endArrow=open;" parent="1" source="84" target="47" edge="1">
                    <mxGeometry width="50" height="50" relative="1" as="geometry">
                        <mxPoint x="1083" y="2550" as="sourcePoint"/>
                        <mxPoint x="1157" y="2550" as="targetPoint"/>
                        <Array as="points">
                            <mxPoint x="1134" y="2581"/>
                            <mxPoint x="1134" y="2581"/>
                        </Array>
                    </mxGeometry>
                </mxCell>
                <mxCell id="210" style="edgeStyle=orthogonalEdgeStyle;html=1;dashed=1;fontSize=28;endFill=0;endArrow=open;" parent="1" source="68" target="47" edge="1">
                    <mxGeometry relative="1" as="geometry">
                        <Array as="points">
                            <mxPoint x="905" y="2736"/>
                            <mxPoint x="905" y="2736"/>
                        </Array>
                    </mxGeometry>
                </mxCell>
                <mxCell id="68" value="TorchEntity" style="swimlane;fontStyle=1;align=center;verticalAlign=top;childLayout=stackLayout;horizontal=1;startSize=26;horizontalStack=0;resizeParent=1;resizeParentMax=0;resizeLast=0;collapsible=1;marginBottom=0;" parent="1" vertex="1">
                    <mxGeometry x="855" y="2826" width="160" height="117" as="geometry"/>
                </mxCell>
                <mxCell id="69" value="~ time: Interval" style="text;strokeColor=none;fillColor=none;align=left;verticalAlign=top;spacingLeft=4;spacingRight=4;overflow=hidden;rotatable=0;points=[[0,0.5],[1,0.5]];portConstraint=eastwest;" parent="68" vertex="1">
                    <mxGeometry y="26" width="160" height="26" as="geometry"/>
                </mxCell>
                <mxCell id="70" value="" style="line;strokeWidth=1;fillColor=none;align=left;verticalAlign=middle;spacingTop=-1;spacingLeft=3;spacingRight=3;rotatable=0;labelPosition=right;points=[];portConstraint=eastwest;" parent="68" vertex="1">
                    <mxGeometry y="52" width="160" height="8" as="geometry"/>
                </mxCell>
                <mxCell id="71" value="+ update(): void&#10;+ draw(): void&#10;+ clipSize(): float" style="text;strokeColor=none;fillColor=none;align=left;verticalAlign=top;spacingLeft=4;spacingRight=4;overflow=hidden;rotatable=0;points=[[0,0.5],[1,0.5]];portConstraint=eastwest;" parent="68" vertex="1">
                    <mxGeometry y="60" width="160" height="57" as="geometry"/>
                </mxCell>
                <mxCell id="215" style="edgeStyle=orthogonalEdgeStyle;html=1;entryDx=0;entryDy=0;dashed=1;fontSize=28;endFill=0;endArrow=open;jumpStyle=arc;" parent="1" source="84" target="92" edge="1">
                    <mxGeometry relative="1" as="geometry">
                        <Array as="points">
                            <mxPoint x="950" y="2570"/>
                        </Array>
                    </mxGeometry>
                </mxCell>
                <mxCell id="216" style="edgeStyle=orthogonalEdgeStyle;html=1;dashed=1;fontSize=28;endFill=0;endArrow=open;jumpStyle=arc;" parent="1" source="84" target="52" edge="1">
                    <mxGeometry relative="1" as="geometry">
                        <Array as="points">
                            <mxPoint x="1614" y="2622"/>
                            <mxPoint x="1614" y="1950"/>
                        </Array>
                    </mxGeometry>
                </mxCell>
                <mxCell id="84" value="SnowDemon" style="swimlane;fontStyle=1;align=center;verticalAlign=top;childLayout=stackLayout;horizontal=1;startSize=26;horizontalStack=0;resizeParent=1;resizeParentMax=0;resizeLast=0;collapsible=1;marginBottom=0;" parent="1" vertex="1">
                    <mxGeometry x="1353" y="2533" width="160" height="177" as="geometry"/>
                </mxCell>
                <mxCell id="85" value="~ drops: Array&lt;Drop&gt;&#10;~ name: String&#10;~ attacklerp: float&#10;" style="text;strokeColor=none;fillColor=none;align=left;verticalAlign=top;spacingLeft=4;spacingRight=4;overflow=hidden;rotatable=0;points=[[0,0.5],[1,0.5]];portConstraint=eastwest;" parent="84" vertex="1">
                    <mxGeometry y="26" width="160" height="55" as="geometry"/>
                </mxCell>
                <mxCell id="86" value="" style="line;strokeWidth=1;fillColor=none;align=left;verticalAlign=middle;spacingTop=-1;spacingLeft=3;spacingRight=3;rotatable=0;labelPosition=right;points=[];portConstraint=eastwest;" parent="84" vertex="1">
                    <mxGeometry y="81" width="160" height="8" as="geometry"/>
                </mxCell>
                <mxCell id="87" value="+ damage(): float&#10;+ speed(): float&#10;+ drops(): Array&lt;Drop&gt;&#10;+ update(): void&#10;+ draw(): void" style="text;strokeColor=none;fillColor=none;align=left;verticalAlign=top;spacingLeft=4;spacingRight=4;overflow=hidden;rotatable=0;points=[[0,0.5],[1,0.5]];portConstraint=eastwest;" parent="84" vertex="1">
                    <mxGeometry y="89" width="160" height="88" as="geometry"/>
                </mxCell>
                <mxCell id="214" style="edgeStyle=orthogonalEdgeStyle;html=1;entryDx=0;entryDy=0;endArrow=block;endFill=0;fillColor=#1ba1e2;strokeColor=#006EAF;" parent="1" source="84" target="38" edge="1">
                    <mxGeometry relative="1" as="geometry"/>
                </mxCell>
                <mxCell id="227" style="edgeStyle=orthogonalEdgeStyle;html=1;entryDx=0;entryDy=0;endArrow=open;endFill=0;fontSize=28;startFill=1;startArrow=diamond;fillColor=#60a917;strokeColor=#2D7600;" parent="1" source="93" target="149" edge="1">
                    <mxGeometry relative="1" as="geometry">
                        <Array as="points">
                            <mxPoint x="1082" y="2040"/>
                            <mxPoint x="1082" y="2040"/>
                        </Array>
                    </mxGeometry>
                </mxCell>
                <mxCell id="230" style="edgeStyle=orthogonalEdgeStyle;html=1;endArrow=open;endFill=0;dashed=1;fontSize=28;" parent="1" source="41" target="96" edge="1">
                    <mxGeometry relative="1" as="geometry">
                        <Array as="points">
                            <mxPoint x="541" y="2999"/>
                        </Array>
                    </mxGeometry>
                </mxCell>
                <mxCell id="232" style="edgeStyle=orthogonalEdgeStyle;html=1;endArrow=open;endFill=0;dashed=1;fontSize=28;jumpStyle=arc;" parent="1" source="45" target="96" edge="1">
                    <mxGeometry relative="1" as="geometry">
                        <mxPoint x="335" y="3480" as="targetPoint"/>
                        <Array as="points">
                            <mxPoint x="496" y="2452"/>
                            <mxPoint x="496" y="2452"/>
                        </Array>
                    </mxGeometry>
                </mxCell>
                <mxCell id="235" style="edgeStyle=orthogonalEdgeStyle;html=1;entryDx=0;entryDy=0;endArrow=open;endFill=0;dashed=1;fontSize=28;" parent="1" source="96" target="52" edge="1">
                    <mxGeometry relative="1" as="geometry">
                        <Array as="points">
                            <mxPoint x="616" y="2349"/>
                            <mxPoint x="616" y="2349"/>
                        </Array>
                    </mxGeometry>
                </mxCell>
                <mxCell id="236" style="edgeStyle=orthogonalEdgeStyle;html=1;endArrow=open;endFill=0;dashed=1;fontSize=28;jumpStyle=arc;" parent="1" source="96" target="30" edge="1">
                    <mxGeometry relative="1" as="geometry">
                        <Array as="points">
                            <mxPoint x="330" y="2518"/>
                        </Array>
                    </mxGeometry>
                </mxCell>
                <mxCell id="92" value="Player" style="swimlane;fontStyle=1;align=center;verticalAlign=top;childLayout=stackLayout;horizontal=1;startSize=26;horizontalStack=0;resizeParent=1;resizeParentMax=0;resizeLast=0;collapsible=1;marginBottom=0;" parent="1" vertex="1">
                    <mxGeometry x="855" y="1986" width="188" height="266" as="geometry"/>
                </mxCell>
                <mxCell id="93" value="+ height: float&#10;+ dir: Dir&#10;+ heat: float&#10;+ smoothHeat: float&#10;+ moveTime: float&#10;+ hitTime: float&#10;+ attackTime: float" style="text;strokeColor=none;fillColor=none;align=left;verticalAlign=top;spacingLeft=4;spacingRight=4;overflow=hidden;rotatable=0;points=[[0,0.5],[1,0.5]];portConstraint=eastwest;" parent="92" vertex="1">
                    <mxGeometry y="26" width="188" height="110" as="geometry"/>
                </mxCell>
                <mxCell id="94" value="" style="line;strokeWidth=1;fillColor=none;align=left;verticalAlign=middle;spacingTop=-1;spacingLeft=3;spacingRight=3;rotatable=0;labelPosition=right;points=[];portConstraint=eastwest;" parent="92" vertex="1">
                    <mxGeometry y="136" width="188" height="8" as="geometry"/>
                </mxCell>
                <mxCell id="95" value="+ update(): void&#10;+ angle(): float&#10;~ hovered(): Entity&#10;+ draw(): void&#10;+ damagePeriodic(float): boolean&#10;+ withinTile(): boolean&#10;+ drawDirection(Dir): void" style="text;strokeColor=none;fillColor=none;align=left;verticalAlign=top;spacingLeft=4;spacingRight=4;overflow=hidden;rotatable=0;points=[[0,0.5],[1,0.5]];portConstraint=eastwest;" parent="92" vertex="1">
                    <mxGeometry y="144" width="188" height="122" as="geometry"/>
                </mxCell>
                <mxCell id="178" style="edgeStyle=orthogonalEdgeStyle;html=1;entryDx=0;entryDy=0;entryPerimeter=0;jumpStyle=arc;endArrow=block;endFill=0;fontSize=28;fillColor=#1ba1e2;strokeColor=#006EAF;" parent="1" source="72" target="47" edge="1">
                    <mxGeometry relative="1" as="geometry">
                        <Array as="points">
                            <mxPoint x="490" y="2660"/>
                            <mxPoint x="490" y="2660"/>
                        </Array>
                    </mxGeometry>
                </mxCell>
                <mxCell id="209" style="edgeStyle=orthogonalEdgeStyle;html=1;dashed=1;fontSize=28;endFill=0;endArrow=open;jumpStyle=arc;" parent="1" source="68" target="30" edge="1">
                    <mxGeometry relative="1" as="geometry">
                        <Array as="points">
                            <mxPoint x="898" y="2960"/>
                            <mxPoint x="284" y="2960"/>
                        </Array>
                    </mxGeometry>
                </mxCell>
                <mxCell id="213" style="edgeStyle=orthogonalEdgeStyle;html=1;dashed=1;fontSize=28;endFill=0;endArrow=open;jumpStyle=arc;" parent="1" source="84" target="30" edge="1">
                    <mxGeometry relative="1" as="geometry">
                        <Array as="points">
                            <mxPoint x="1576" y="2675"/>
                            <mxPoint x="1576" y="3059"/>
                            <mxPoint x="234" y="3059"/>
                        </Array>
                    </mxGeometry>
                </mxCell>
                <mxCell id="254" value="" style="endArrow=open;html=1;rounded=1;fontSize=28;endFill=0;edgeStyle=orthogonalEdgeStyle;jumpStyle=none;entryDx=0;entryDy=0;exitDx=0;exitDy=0;startArrow=diamond;startFill=1;fillColor=#60a917;strokeColor=#2D7600;" parent="1" source="84" target="126" edge="1">
                    <mxGeometry width="50" height="50" relative="1" as="geometry">
                        <mxPoint x="1471.94" y="2787" as="sourcePoint"/>
                        <mxPoint x="1252.9988235294122" y="2799" as="targetPoint"/>
                        <Array as="points">
                            <mxPoint x="1076" y="2561"/>
                        </Array>
                    </mxGeometry>
                </mxCell>
                <mxCell id="258" style="edgeStyle=orthogonalEdgeStyle;html=1;exitDx=0;exitDy=0;entryDx=0;entryDy=0;dashed=1;endArrow=open;endFill=0;jumpStyle=arc;" parent="1" source="47" target="17" edge="1">
                    <mxGeometry relative="1" as="geometry">
                        <mxPoint x="1135" y="2775" as="sourcePoint"/>
                        <mxPoint x="1135" y="2661" as="targetPoint"/>
                        <Array as="points">
                            <mxPoint x="1056" y="2630"/>
                            <mxPoint x="1056" y="2630"/>
                        </Array>
                    </mxGeometry>
                </mxCell>
                <mxCell id="259" style="edgeStyle=orthogonalEdgeStyle;html=1;exitDx=0;exitDy=0;entryDx=0;entryDy=0;dashed=1;endArrow=open;endFill=0;jumpStyle=arc;" parent="1" source="17" target="47" edge="1">
                    <mxGeometry relative="1" as="geometry">
                        <mxPoint x="800" y="2843.034482758621" as="sourcePoint"/>
                        <mxPoint x="835.9999999999995" y="2843.034482758621" as="targetPoint"/>
                        <Array as="points">
                            <mxPoint x="1040" y="2648"/>
                            <mxPoint x="1040" y="2648"/>
                        </Array>
                    </mxGeometry>
                </mxCell>
                <mxCell id="211" style="edgeStyle=orthogonalEdgeStyle;html=1;dashed=1;fontSize=28;endFill=0;endArrow=open;jumpStyle=arc;" parent="1" source="68" target="52" edge="1">
                    <mxGeometry relative="1" as="geometry">
                        <Array as="points">
                            <mxPoint x="975" y="3078"/>
                            <mxPoint x="1657" y="3078"/>
                            <mxPoint x="1657" y="1906"/>
                        </Array>
                    </mxGeometry>
                </mxCell>
                <mxCell id="262" style="edgeStyle=orthogonalEdgeStyle;html=1;dashed=1;fontSize=28;endFill=0;endArrow=open;" parent="1" source="53" target="131" edge="1">
                    <mxGeometry relative="1" as="geometry">
                        <Array as="points">
                            <mxPoint x="471" y="2042"/>
                            <mxPoint x="471" y="2042"/>
                        </Array>
                    </mxGeometry>
                </mxCell>
                <mxCell id="277" style="edgeStyle=orthogonalEdgeStyle;jumpStyle=arc;html=1;dashed=1;fontSize=28;endFill=0;endArrow=open;" parent="1" source="96" target="271" edge="1">
                    <mxGeometry relative="1" as="geometry">
                        <Array as="points">
                            <mxPoint x="412" y="2545"/>
                        </Array>
                    </mxGeometry>
                </mxCell>
                <mxCell id="96" value="ItemEntity" style="swimlane;fontStyle=1;align=center;verticalAlign=top;childLayout=stackLayout;horizontal=1;startSize=26;horizontalStack=0;resizeParent=1;resizeParentMax=0;resizeLast=0;collapsible=1;marginBottom=0;" parent="1" vertex="1">
                    <mxGeometry x="467" y="2467" width="205" height="156" as="geometry"/>
                </mxCell>
                <mxCell id="97" value="+ item: Item&#10;+ velocity: Vec2" style="text;strokeColor=none;fillColor=none;align=left;verticalAlign=top;spacingLeft=4;spacingRight=4;overflow=hidden;rotatable=0;points=[[0,0.5],[1,0.5]];portConstraint=eastwest;" parent="96" vertex="1">
                    <mxGeometry y="26" width="205" height="39" as="geometry"/>
                </mxCell>
                <mxCell id="98" value="" style="line;strokeWidth=1;fillColor=none;align=left;verticalAlign=middle;spacingTop=-1;spacingLeft=3;spacingRight=3;rotatable=0;labelPosition=right;points=[];portConstraint=eastwest;" parent="96" vertex="1">
                    <mxGeometry y="65" width="205" height="8" as="geometry"/>
                </mxCell>
                <mxCell id="99" value="+ update(): void&#10;+ clicked(): void&#10;+ solid(): boolean&#10;+ draw(): void&#10;+ create(Item, float, float): ItemEntity" style="text;strokeColor=none;fillColor=none;align=left;verticalAlign=top;spacingLeft=4;spacingRight=4;overflow=hidden;rotatable=0;points=[[0,0.5],[1,0.5]];portConstraint=eastwest;" parent="96" vertex="1">
                    <mxGeometry y="73" width="205" height="83" as="geometry"/>
                </mxCell>
                <mxCell id="268" style="edgeStyle=orthogonalEdgeStyle;html=1;endArrow=block;endFill=0;fontSize=28;jumpStyle=arc;fillColor=#1ba1e2;strokeColor=#006EAF;entryDx=0;entryDy=0;exitDx=0;exitDy=0;" parent="1" source="42" target="47" edge="1">
                    <mxGeometry relative="1" as="geometry">
                        <mxPoint x="695" y="2604" as="sourcePoint"/>
                        <mxPoint x="771" y="2493.529411764706" as="targetPoint"/>
                        <Array as="points">
                            <mxPoint x="563" y="2389"/>
                            <mxPoint x="563" y="2389"/>
                        </Array>
                    </mxGeometry>
                </mxCell>
                <mxCell id="271" value="ItemMove" style="swimlane;fontStyle=1;align=center;verticalAlign=top;childLayout=stackLayout;horizontal=1;startSize=26;horizontalStack=0;resizeParent=1;resizeParentMax=0;resizeLast=0;collapsible=1;marginBottom=0;" parent="1" vertex="1">
                    <mxGeometry x="382" y="1896" width="160" height="65" as="geometry"/>
                </mxCell>
                <mxCell id="272" value="+ target: Position&#10;+ item: Item" style="text;strokeColor=none;fillColor=none;align=left;verticalAlign=top;spacingLeft=4;spacingRight=4;overflow=hidden;rotatable=0;points=[[0,0.5],[1,0.5]];portConstraint=eastwest;" parent="271" vertex="1">
                    <mxGeometry y="26" width="160" height="39" as="geometry"/>
                </mxCell>
                <mxCell id="275" style="edgeStyle=orthogonalEdgeStyle;html=1;fontSize=28;strokeColor=#B09500;fillColor=#e3c800;endFill=0;endArrow=none;startFill=0;startArrow=circlePlus;startSize=3;" parent="1" source="53" target="271" edge="1">
                    <mxGeometry relative="1" as="geometry">
                        <Array as="points">
                            <mxPoint x="507" y="1991"/>
                        </Array>
                    </mxGeometry>
                </mxCell>
                <mxCell id="280" style="edgeStyle=orthogonalEdgeStyle;jumpStyle=arc;html=1;exitDx=0;exitDy=0;entryDx=0;entryDy=0;endArrow=open;endFill=0;startArrow=diamond;startFill=1;" parent="1" source="52" target="271" edge="1">
                    <mxGeometry relative="1" as="geometry">
                        <Array as="points">
                            <mxPoint x="468" y="2018"/>
                        </Array>
                    </mxGeometry>
                </mxCell>
                <mxCell id="281" value="&lt;div style=&quot;font-size: 30px&quot;&gt;&lt;font style=&quot;font-size: 30px&quot;&gt;&lt;b&gt;Template method&lt;/b&gt; - Use an abstract class that defines templates to execute its methods,&amp;nbsp;&lt;/font&gt;&lt;/div&gt;&lt;div style=&quot;font-size: 30px&quot;&gt;&lt;font style=&quot;font-size: 30px&quot;&gt;and subclasses may override the implementation.&lt;br&gt;&lt;br&gt;&lt;/font&gt;&lt;/div&gt;&lt;div style=&quot;font-size: 30px&quot;&gt;&lt;font style=&quot;font-size: 30px&quot;&gt;&lt;b&gt;Bridge&lt;/b&gt; - An interface which acts as a bridge, which makes the functionality of concrete classes &lt;br&gt;independent from interface implementer classes,&amp;nbsp;&lt;/font&gt;&lt;/div&gt;&lt;div style=&quot;font-size: 30px&quot;&gt;&lt;font style=&quot;font-size: 30px&quot;&gt;where both types of classes can be altered structurally without affecting each other.&lt;/font&gt;&lt;/div&gt;&lt;div style=&quot;font-size: 30px&quot;&gt;&lt;font style=&quot;font-size: 30px&quot;&gt;&lt;br&gt;&lt;/font&gt;&lt;/div&gt;&lt;div style=&quot;font-size: 30px&quot;&gt;&lt;font style=&quot;font-size: 30px&quot;&gt;&lt;b&gt;Factory&lt;/b&gt; - Method that creates new objects without specifying the exact class type&lt;/font&gt;&lt;/div&gt;&lt;div style=&quot;font-size: 30px&quot;&gt;&lt;font style=&quot;font-size: 30px&quot;&gt;&lt;b&gt;&lt;br&gt;&lt;/b&gt;&lt;/font&gt;&lt;/div&gt;&lt;div style=&quot;font-size: 30px&quot;&gt;&lt;font style=&quot;font-size: 30px&quot;&gt;&lt;b&gt;Chain of responsibility&lt;/b&gt; - Let different receivers handle a request as a chain.&lt;/font&gt;&lt;/div&gt;&lt;div style=&quot;font-size: 30px&quot;&gt;&lt;font style=&quot;font-size: 30px&quot;&gt;&lt;b&gt;&lt;br&gt;&lt;/b&gt;&lt;/font&gt;&lt;/div&gt;&lt;div style=&quot;font-size: 30px&quot;&gt;&lt;font style=&quot;font-size: 30px&quot;&gt;&lt;b&gt;Module&lt;/b&gt; - Group multiple related elements (classes, methods, interfaces) as one singular module.&lt;/font&gt;&lt;/div&gt;&lt;div style=&quot;font-size: 30px&quot;&gt;&lt;font style=&quot;font-size: 30px&quot;&gt;&lt;b&gt;&lt;br&gt;&lt;/b&gt;&lt;/font&gt;&lt;/div&gt;&lt;div style=&quot;font-size: 30px&quot;&gt;&lt;b&gt;Strategy&lt;/b&gt;&lt;span&gt; - Use different interface implementations to define how an action should be made.&lt;/span&gt;&lt;br&gt;&lt;/div&gt;&lt;div style=&quot;font-size: 30px&quot;&gt;&lt;font style=&quot;font-size: 30px&quot;&gt;&lt;b&gt;&lt;br&gt;&lt;/b&gt;&lt;/font&gt;&lt;/div&gt;&lt;div style=&quot;font-size: 30px&quot;&gt;&lt;font style=&quot;font-size: 30px&quot;&gt;&lt;b&gt;Decorator&lt;/b&gt; - Create a decorator class to wrap another class' functionality and provides additional &lt;br&gt;functionality to the original class without changing its signature.&lt;/font&gt;&lt;/div&gt;&lt;div style=&quot;font-size: 30px&quot;&gt;&lt;font style=&quot;font-size: 30px&quot;&gt;&lt;b&gt;&lt;br&gt;&lt;/b&gt;&lt;/font&gt;&lt;/div&gt;&lt;div style=&quot;font-size: 30px&quot;&gt;&lt;font style=&quot;font-size: 30px&quot;&gt;&lt;b&gt;Observer&lt;/b&gt; - If one object is modified, its dependent objects are to be notified automatically&lt;/font&gt;&lt;/div&gt;&lt;div style=&quot;font-size: 30px&quot;&gt;&lt;font style=&quot;font-size: 30px&quot;&gt;&lt;b&gt;&lt;br&gt;&lt;/b&gt;&lt;/font&gt;&lt;/div&gt;&lt;div style=&quot;font-size: 30px&quot;&gt;&lt;font style=&quot;font-size: 30px&quot;&gt;&lt;b&gt;Facade&lt;/b&gt; - Hide complexity behind oftentimes one singular class and expose functionality through class methods.&lt;/font&gt;&lt;/div&gt;&lt;div style=&quot;font-size: 30px&quot;&gt;&lt;font style=&quot;font-size: 30px&quot;&gt;&lt;b&gt;&lt;br&gt;&lt;/b&gt;&lt;/font&gt;&lt;/div&gt;&lt;div style=&quot;font-size: 30px&quot;&gt;&lt;font style=&quot;font-size: 30px&quot;&gt;&lt;b&gt;State&lt;/b&gt; - Change behavior as an internal state is changed.&lt;/font&gt;&lt;/div&gt;&lt;div style=&quot;font-size: 30px&quot;&gt;&lt;font style=&quot;font-size: 30px&quot;&gt;&lt;b&gt;&lt;br&gt;&lt;/b&gt;&lt;/font&gt;&lt;/div&gt;&lt;div style=&quot;font-size: 30px&quot;&gt;&lt;font style=&quot;font-size: 30px&quot;&gt;&lt;b&gt;Adapter&lt;/b&gt; - Adapts functionality of one interface to another&lt;/font&gt;&lt;/div&gt;&lt;div style=&quot;font-size: 30px&quot;&gt;&lt;font style=&quot;font-size: 30px&quot;&gt;&lt;b&gt;&lt;br&gt;&lt;/b&gt;&lt;/font&gt;&lt;/div&gt;&lt;div style=&quot;font-size: 30px&quot;&gt;&lt;font style=&quot;font-size: 30px&quot;&gt;&lt;b&gt;MVC&lt;/b&gt; - Model that handles data, View that visualises data from the model, Controller that acts on model from&amp;nbsp;&lt;/font&gt;&lt;/div&gt;&lt;div style=&quot;font-size: 30px&quot;&gt;&lt;font style=&quot;font-size: 30px&quot;&gt;the view, and handles data for the view&lt;/font&gt;&lt;/div&gt;" style="text;html=1;align=left;verticalAlign=middle;resizable=0;points=[];autosize=1;strokeColor=none;fillColor=none;fontSize=30;" parent="1" vertex="1">
                    <mxGeometry x="-2429" y="25" width="1494" height="1012" as="geometry"/>
                </mxCell>
                <mxCell id="282" value="ChalmersMapsAPI" style="swimlane;fontStyle=1;align=center;verticalAlign=top;childLayout=stackLayout;horizontal=1;startSize=26;horizontalStack=0;resizeParent=1;resizeParentMax=0;resizeLast=0;collapsible=1;marginBottom=0;" parent="1" vertex="1">
                    <mxGeometry x="340" y="293" width="263" height="52" as="geometry"/>
                </mxCell>
                <mxCell id="283" value="+ baseUrl: String" style="text;strokeColor=none;fillColor=none;align=left;verticalAlign=top;spacingLeft=4;spacingRight=4;overflow=hidden;rotatable=0;points=[[0,0.5],[1,0.5]];portConstraint=eastwest;" parent="282" vertex="1">
                    <mxGeometry y="26" width="263" height="26" as="geometry"/>
                </mxCell>
                <mxCell id="309" value="GenericCache&lt;&gt;" style="swimlane;fontStyle=1;align=center;verticalAlign=top;childLayout=stackLayout;horizontal=1;startSize=26;horizontalStack=0;resizeParent=1;resizeParentMax=0;resizeLast=0;collapsible=1;marginBottom=0;" parent="1" vertex="1">
                    <mxGeometry x="23" y="423" width="160" height="86" as="geometry"/>
                </mxCell>
                <mxCell id="310" value="+ field: type" style="text;strokeColor=none;fillColor=none;align=left;verticalAlign=top;spacingLeft=4;spacingRight=4;overflow=hidden;rotatable=0;points=[[0,0.5],[1,0.5]];portConstraint=eastwest;" parent="309" vertex="1">
                    <mxGeometry y="26" width="160" height="26" as="geometry"/>
                </mxCell>
                <mxCell id="311" value="" style="line;strokeWidth=1;fillColor=none;align=left;verticalAlign=middle;spacingTop=-1;spacingLeft=3;spacingRight=3;rotatable=0;labelPosition=right;points=[];portConstraint=eastwest;" parent="309" vertex="1">
                    <mxGeometry y="52" width="160" height="8" as="geometry"/>
                </mxCell>
                <mxCell id="312" value="+ method(type): type" style="text;strokeColor=none;fillColor=none;align=left;verticalAlign=top;spacingLeft=4;spacingRight=4;overflow=hidden;rotatable=0;points=[[0,0.5],[1,0.5]];portConstraint=eastwest;" parent="309" vertex="1">
                    <mxGeometry y="60" width="160" height="26" as="geometry"/>
                </mxCell>
                <mxCell id="313" value="Room" style="swimlane;fontStyle=1;align=center;verticalAlign=top;childLayout=stackLayout;horizontal=1;startSize=26;horizontalStack=0;resizeParent=1;resizeParentMax=0;resizeLast=0;collapsible=1;marginBottom=0;" parent="1" vertex="1">
                    <mxGeometry x="-5" y="776" width="215" height="196" as="geometry"/>
                </mxCell>
                <mxCell id="314" value="+ name: String&#10;+ building: String&#10;+ floor: String&#10;+ streetAddress: String&#10;+ timeEditId: String&#10;+ uuid: UUID&#10;+ location: Location&#10;+ entranceLocation: Location&#10;" style="text;strokeColor=none;fillColor=none;align=left;verticalAlign=top;spacingLeft=4;spacingRight=4;overflow=hidden;rotatable=0;points=[[0,0.5],[1,0.5]];portConstraint=eastwest;" parent="313" vertex="1">
                    <mxGeometry y="26" width="215" height="129" as="geometry"/>
                </mxCell>
                <mxCell id="315" value="" style="line;strokeWidth=1;fillColor=none;align=left;verticalAlign=middle;spacingTop=-1;spacingLeft=3;spacingRight=3;rotatable=0;labelPosition=right;points=[];portConstraint=eastwest;" parent="313" vertex="1">
                    <mxGeometry y="155" width="215" height="8" as="geometry"/>
                </mxCell>
                <mxCell id="316" value="+ fromJSON(JsonObject obj): Room" style="text;strokeColor=none;fillColor=none;align=left;verticalAlign=top;spacingLeft=4;spacingRight=4;overflow=hidden;rotatable=0;points=[[0,0.5],[1,0.5]];portConstraint=eastwest;" parent="313" vertex="1">
                    <mxGeometry y="163" width="215" height="33" as="geometry"/>
                </mxCell>
                <mxCell id="318" value="" style="endArrow=open;html=1;rounded=1;fontSize=28;endFill=0;edgeStyle=orthogonalEdgeStyle;jumpStyle=arc;" parent="1" source="309" target="313" edge="1">
                    <mxGeometry width="50" height="50" relative="1" as="geometry">
                        <mxPoint x="79" y="519" as="sourcePoint"/>
                        <mxPoint x="73" y="562" as="targetPoint"/>
                    </mxGeometry>
                </mxCell>
                <mxCell id="323" value="Booking" style="swimlane;fontStyle=1;align=center;verticalAlign=top;childLayout=stackLayout;horizontal=1;startSize=26;horizontalStack=0;resizeParent=1;resizeParentMax=0;resizeLast=0;collapsible=1;marginBottom=0;" parent="1" vertex="1">
                    <mxGeometry x="335" y="825" width="235" height="99" as="geometry"/>
                </mxCell>
                <mxCell id="324" value="+ startTime: LocalDateTime&#10;+ endTime: LocalDateTime" style="text;strokeColor=none;fillColor=none;align=left;verticalAlign=top;spacingLeft=4;spacingRight=4;overflow=hidden;rotatable=0;points=[[0,0.5],[1,0.5]];portConstraint=eastwest;" parent="323" vertex="1">
                    <mxGeometry y="26" width="235" height="39" as="geometry"/>
                </mxCell>
                <mxCell id="325" value="" style="line;strokeWidth=1;fillColor=none;align=left;verticalAlign=middle;spacingTop=-1;spacingLeft=3;spacingRight=3;rotatable=0;labelPosition=right;points=[];portConstraint=eastwest;" parent="323" vertex="1">
                    <mxGeometry y="65" width="235" height="8" as="geometry"/>
                </mxCell>
                <mxCell id="326" value="+ fromJSON(JsonObject): Booking" style="text;strokeColor=none;fillColor=none;align=left;verticalAlign=top;spacingLeft=4;spacingRight=4;overflow=hidden;rotatable=0;points=[[0,0.5],[1,0.5]];portConstraint=eastwest;" parent="323" vertex="1">
                    <mxGeometry y="73" width="235" height="26" as="geometry"/>
                </mxCell>
                <mxCell id="327" value="" style="endArrow=open;html=1;rounded=1;fontSize=28;endFill=0;edgeStyle=orthogonalEdgeStyle;jumpStyle=arc;startArrow=diamond;startFill=1;" parent="1" source="313" target="323" edge="1">
                    <mxGeometry width="50" height="50" relative="1" as="geometry">
                        <mxPoint x="323" y="702" as="sourcePoint"/>
                        <mxPoint x="291" y="755" as="targetPoint"/>
                    </mxGeometry>
                </mxCell>
                <mxCell id="332" value="RoomService" style="swimlane;fontStyle=1;align=center;verticalAlign=top;childLayout=stackLayout;horizontal=1;startSize=26;horizontalStack=0;resizeParent=1;resizeParentMax=0;resizeLast=0;collapsible=1;marginBottom=0;" parent="1" vertex="1">
                    <mxGeometry x="-57" y="254" width="176" height="52" as="geometry"/>
                </mxCell>
                <mxCell id="333" value="+ rooms: List&lt;Room&gt;" style="text;strokeColor=none;fillColor=none;align=left;verticalAlign=top;spacingLeft=4;spacingRight=4;overflow=hidden;rotatable=0;points=[[0,0.5],[1,0.5]];portConstraint=eastwest;" parent="332" vertex="1">
                    <mxGeometry y="26" width="176" height="26" as="geometry"/>
                </mxCell>
                <mxCell id="340" value="" style="endArrow=open;dashed=1;html=1;rounded=1;fontSize=28;endFill=0;edgeStyle=orthogonalEdgeStyle;jumpStyle=arc;" parent="1" source="332" target="282" edge="1">
                    <mxGeometry width="50" height="50" relative="1" as="geometry">
                        <mxPoint x="381" y="313.99999999999994" as="sourcePoint"/>
                        <mxPoint x="455" y="313.99999999999994" as="targetPoint"/>
                    </mxGeometry>
                </mxCell>
                <mxCell id="344" value="&lt;font style=&quot;font-size: 18px&quot;&gt;Facade&lt;/font&gt;" style="text;html=1;align=center;verticalAlign=middle;resizable=0;points=[];autosize=1;strokeColor=none;fillColor=none;fontSize=30;" parent="1" vertex="1">
                    <mxGeometry x="-32" y="-382" width="70" height="44" as="geometry"/>
                </mxCell>
                <mxCell id="345" value="" style="endArrow=open;html=1;rounded=1;fontSize=28;endFill=0;edgeStyle=orthogonalEdgeStyle;jumpStyle=arc;" parent="1" source="332" target="309" edge="1">
                    <mxGeometry width="50" height="50" relative="1" as="geometry">
                        <mxPoint x="44.25" y="394.5799999999999" as="sourcePoint"/>
                        <mxPoint x="118.25" y="394.5799999999999" as="targetPoint"/>
                    </mxGeometry>
                </mxCell>
                <mxCell id="349" value="&lt;font&gt;&lt;font style=&quot;font-size: 40px&quot;&gt;UML GETAROOM&lt;/font&gt;&lt;br&gt;&lt;/font&gt;" style="text;html=1;align=center;verticalAlign=middle;resizable=0;points=[];autosize=1;strokeColor=none;fillColor=none;fontSize=30;" parent="1" vertex="1">
                    <mxGeometry x="256" y="-349" width="335" height="44" as="geometry"/>
                </mxCell>
                <mxCell id="359" value="ChalmersMapsAPI" style="swimlane;fontStyle=1;align=center;verticalAlign=top;childLayout=stackLayout;horizontal=1;startSize=26;horizontalStack=0;resizeParent=1;resizeParentMax=0;resizeLast=0;collapsible=1;marginBottom=0;" parent="1" vertex="1">
                    <mxGeometry x="3401" y="384" width="263" height="52" as="geometry"/>
                </mxCell>
                <mxCell id="360" value=" " style="text;strokeColor=none;fillColor=none;align=left;verticalAlign=top;spacingLeft=4;spacingRight=4;overflow=hidden;rotatable=0;points=[[0,0.5],[1,0.5]];portConstraint=eastwest;" parent="359" vertex="1">
                    <mxGeometry y="26" width="263" height="26" as="geometry"/>
                </mxCell>
                <mxCell id="363" value="RoomCache" style="swimlane;fontStyle=1;align=center;verticalAlign=top;childLayout=stackLayout;horizontal=1;startSize=26;horizontalStack=0;resizeParent=1;resizeParentMax=0;resizeLast=0;collapsible=1;marginBottom=0;" parent="1" vertex="1">
                    <mxGeometry x="3298" y="614" width="160" height="52" as="geometry"/>
                </mxCell>
                <mxCell id="364" value=" " style="text;strokeColor=none;fillColor=none;align=left;verticalAlign=top;spacingLeft=4;spacingRight=4;overflow=hidden;rotatable=0;points=[[0,0.5],[1,0.5]];portConstraint=eastwest;" parent="363" vertex="1">
                    <mxGeometry y="26" width="160" height="26" as="geometry"/>
                </mxCell>
                <mxCell id="367" value="Room" style="swimlane;fontStyle=1;align=center;verticalAlign=top;childLayout=stackLayout;horizontal=1;startSize=26;horizontalStack=0;resizeParent=1;resizeParentMax=0;resizeLast=0;collapsible=1;marginBottom=0;" parent="1" vertex="1">
                    <mxGeometry x="3298" y="724" width="160" height="52" as="geometry"/>
                </mxCell>
                <mxCell id="368" value=" " style="text;strokeColor=none;fillColor=none;align=left;verticalAlign=top;spacingLeft=4;spacingRight=4;overflow=hidden;rotatable=0;points=[[0,0.5],[1,0.5]];portConstraint=eastwest;" parent="367" vertex="1">
                    <mxGeometry y="26" width="160" height="26" as="geometry"/>
                </mxCell>
                <mxCell id="371" value="" style="endArrow=open;html=1;rounded=1;fontSize=28;endFill=0;edgeStyle=orthogonalEdgeStyle;jumpStyle=arc;" parent="1" source="363" target="367" edge="1">
                    <mxGeometry width="50" height="50" relative="1" as="geometry">
                        <mxPoint x="3354" y="710" as="sourcePoint"/>
                        <mxPoint x="3348" y="753" as="targetPoint"/>
                    </mxGeometry>
                </mxCell>
                <mxCell id="372" value="Booking" style="swimlane;fontStyle=1;align=center;verticalAlign=top;childLayout=stackLayout;horizontal=1;startSize=26;horizontalStack=0;resizeParent=1;resizeParentMax=0;resizeLast=0;collapsible=1;marginBottom=0;" parent="1" vertex="1">
                    <mxGeometry x="3297" y="837" width="160" height="52" as="geometry"/>
                </mxCell>
                <mxCell id="373" value=" " style="text;strokeColor=none;fillColor=none;align=left;verticalAlign=top;spacingLeft=4;spacingRight=4;overflow=hidden;rotatable=0;points=[[0,0.5],[1,0.5]];portConstraint=eastwest;" parent="372" vertex="1">
                    <mxGeometry y="26" width="160" height="26" as="geometry"/>
                </mxCell>
                <mxCell id="376" value="" style="endArrow=open;html=1;rounded=1;fontSize=28;endFill=0;edgeStyle=orthogonalEdgeStyle;jumpStyle=arc;startArrow=none;startFill=0;dashed=1;" parent="1" source="394" target="400" edge="1">
                    <mxGeometry width="50" height="50" relative="1" as="geometry">
                        <mxPoint x="3656" y="559" as="sourcePoint"/>
                        <mxPoint x="3654.999999999999" y="620" as="targetPoint"/>
                    </mxGeometry>
                </mxCell>
                <mxCell id="377" value="RoomService" style="swimlane;fontStyle=1;align=center;verticalAlign=top;childLayout=stackLayout;horizontal=1;startSize=26;horizontalStack=0;resizeParent=1;resizeParentMax=0;resizeLast=0;collapsible=1;marginBottom=0;" parent="1" vertex="1">
                    <mxGeometry x="3299" y="507" width="160" height="52" as="geometry"/>
                </mxCell>
                <mxCell id="378" value=" " style="text;strokeColor=none;fillColor=none;align=left;verticalAlign=top;spacingLeft=4;spacingRight=4;overflow=hidden;rotatable=0;points=[[0,0.5],[1,0.5]];portConstraint=eastwest;" parent="377" vertex="1">
                    <mxGeometry y="26" width="160" height="26" as="geometry"/>
                </mxCell>
                <mxCell id="381" value="" style="endArrow=open;dashed=1;html=1;rounded=1;fontSize=28;endFill=0;edgeStyle=orthogonalEdgeStyle;jumpStyle=arc;" parent="1" source="377" target="359" edge="1">
                    <mxGeometry width="50" height="50" relative="1" as="geometry">
                        <mxPoint x="3656" y="508.99999999999994" as="sourcePoint"/>
                        <mxPoint x="3730" y="508.99999999999994" as="targetPoint"/>
                        <Array as="points">
                            <mxPoint x="3379" y="471"/>
                            <mxPoint x="3533" y="471"/>
                        </Array>
                    </mxGeometry>
                </mxCell>
                <mxCell id="382" value="" style="endArrow=open;html=1;rounded=1;fontSize=28;endFill=0;edgeStyle=orthogonalEdgeStyle;jumpStyle=arc;" parent="1" source="377" target="363" edge="1">
                    <mxGeometry width="50" height="50" relative="1" as="geometry">
                        <mxPoint x="3319.25" y="625.5799999999999" as="sourcePoint"/>
                        <mxPoint x="3393.25" y="625.5799999999999" as="targetPoint"/>
                        <Array as="points">
                            <mxPoint x="3378" y="573"/>
                            <mxPoint x="3378" y="573"/>
                        </Array>
                    </mxGeometry>
                </mxCell>
                <mxCell id="383" value="n" style="text;html=1;align=center;verticalAlign=middle;resizable=0;points=[];autosize=1;strokeColor=none;fillColor=none;" parent="1" vertex="1">
                    <mxGeometry x="3672" y="596" width="17" height="18" as="geometry"/>
                </mxCell>
                <mxCell id="384" value="1" style="text;html=1;align=center;verticalAlign=middle;resizable=0;points=[];autosize=1;strokeColor=none;fillColor=none;" parent="1" vertex="1">
                    <mxGeometry x="3672" y="566" width="17" height="18" as="geometry"/>
                </mxCell>
                <mxCell id="385" value="n" style="text;html=1;align=center;verticalAlign=middle;resizable=0;points=[];autosize=1;strokeColor=none;fillColor=none;" parent="1" vertex="1">
                    <mxGeometry x="3383" y="699" width="17" height="18" as="geometry"/>
                </mxCell>
                <mxCell id="386" value="1" style="text;html=1;align=center;verticalAlign=middle;resizable=0;points=[];autosize=1;strokeColor=none;fillColor=none;" parent="1" vertex="1">
                    <mxGeometry x="3383" y="671" width="17" height="18" as="geometry"/>
                </mxCell>
                <mxCell id="387" value="1" style="text;html=1;align=center;verticalAlign=middle;resizable=0;points=[];autosize=1;strokeColor=none;fillColor=none;" parent="1" vertex="1">
                    <mxGeometry x="3383" y="591" width="17" height="18" as="geometry"/>
                </mxCell>
                <mxCell id="388" value="1" style="text;html=1;align=center;verticalAlign=middle;resizable=0;points=[];autosize=1;strokeColor=none;fillColor=none;" parent="1" vertex="1">
                    <mxGeometry x="3383" y="565" width="17" height="18" as="geometry"/>
                </mxCell>
                <mxCell id="389" value="1" style="text;html=1;align=center;verticalAlign=middle;resizable=0;points=[];autosize=1;strokeColor=none;fillColor=none;" parent="1" vertex="1">
                    <mxGeometry x="3356" y="485" width="17" height="18" as="geometry"/>
                </mxCell>
                <mxCell id="390" value="1" style="text;html=1;align=center;verticalAlign=middle;resizable=0;points=[];autosize=1;strokeColor=none;fillColor=none;" parent="1" vertex="1">
                    <mxGeometry x="3504" y="441" width="17" height="18" as="geometry"/>
                </mxCell>
                <mxCell id="392" value="&lt;font&gt;&lt;font style=&quot;font-size: 40px&quot;&gt;DOMAIN MODEL GETAROOM&lt;/font&gt;&lt;br&gt;&lt;/font&gt;" style="text;html=1;align=center;verticalAlign=middle;resizable=0;points=[];autosize=1;strokeColor=none;fillColor=none;fontSize=30;" parent="1" vertex="1">
                    <mxGeometry x="3268.5" y="310" width="563" height="44" as="geometry"/>
                </mxCell>
                <mxCell id="393" value="&lt;font style=&quot;font-size: 18px&quot;&gt;Module&lt;/font&gt;" style="text;html=1;align=center;verticalAlign=middle;resizable=0;points=[];autosize=1;strokeColor=none;fillColor=none;fontSize=30;" parent="1" vertex="1">
                    <mxGeometry x="-61" y="-453" width="69" height="44" as="geometry"/>
                </mxCell>
                <mxCell id="394" value="RouteService" style="swimlane;fontStyle=1;align=center;verticalAlign=top;childLayout=stackLayout;horizontal=1;startSize=26;horizontalStack=0;resizeParent=1;resizeParentMax=0;resizeLast=0;collapsible=1;marginBottom=0;" parent="1" vertex="1">
                    <mxGeometry x="3581" y="505" width="160" height="52" as="geometry"/>
                </mxCell>
                <mxCell id="395" value=" " style="text;strokeColor=none;fillColor=none;align=left;verticalAlign=top;spacingLeft=4;spacingRight=4;overflow=hidden;rotatable=0;points=[[0,0.5],[1,0.5]];portConstraint=eastwest;" parent="394" vertex="1">
                    <mxGeometry y="26" width="160" height="26" as="geometry"/>
                </mxCell>
                <mxCell id="399" value="" style="endArrow=open;dashed=1;html=1;rounded=1;fontSize=28;endFill=0;edgeStyle=orthogonalEdgeStyle;jumpStyle=arc;" parent="1" source="394" target="359" edge="1">
                    <mxGeometry width="50" height="50" relative="1" as="geometry">
                        <mxPoint x="3389" y="517.0000000000002" as="sourcePoint"/>
                        <mxPoint x="3534" y="458" as="targetPoint"/>
                        <Array as="points">
                            <mxPoint x="3661" y="470"/>
                            <mxPoint x="3534" y="470"/>
                        </Array>
                    </mxGeometry>
                </mxCell>
                <mxCell id="400" value="Route" style="swimlane;fontStyle=1;align=center;verticalAlign=top;childLayout=stackLayout;horizontal=1;startSize=26;horizontalStack=0;resizeParent=1;resizeParentMax=0;resizeLast=0;collapsible=1;marginBottom=0;" parent="1" vertex="1">
                    <mxGeometry x="3581" y="621" width="160" height="52" as="geometry"/>
                </mxCell>
                <mxCell id="401" value=" " style="text;strokeColor=none;fillColor=none;align=left;verticalAlign=top;spacingLeft=4;spacingRight=4;overflow=hidden;rotatable=0;points=[[0,0.5],[1,0.5]];portConstraint=eastwest;" parent="400" vertex="1">
                    <mxGeometry y="26" width="160" height="26" as="geometry"/>
                </mxCell>
                <mxCell id="402" value="1" style="text;html=1;align=center;verticalAlign=middle;resizable=0;points=[];autosize=1;strokeColor=none;fillColor=none;" parent="1" vertex="1">
                    <mxGeometry x="3381" y="780" width="17" height="18" as="geometry"/>
                </mxCell>
                <mxCell id="403" value="" style="endArrow=open;html=1;rounded=1;fontSize=28;endFill=0;edgeStyle=orthogonalEdgeStyle;jumpStyle=arc;" parent="1" source="367" target="372" edge="1">
                    <mxGeometry width="50" height="50" relative="1" as="geometry">
                        <mxPoint x="3386" y="778" as="sourcePoint"/>
                        <mxPoint x="3386" y="836" as="targetPoint"/>
                        <Array as="points">
                            <mxPoint x="3377" y="792"/>
                            <mxPoint x="3377" y="792"/>
                        </Array>
                    </mxGeometry>
                </mxCell>
                <mxCell id="404" value="n" style="text;html=1;align=center;verticalAlign=middle;resizable=0;points=[];autosize=1;strokeColor=none;fillColor=none;" parent="1" vertex="1">
                    <mxGeometry x="3381" y="817" width="17" height="18" as="geometry"/>
                </mxCell>
                <mxCell id="407" value="ChalmersMapsAPI" style="swimlane;fontStyle=1;align=center;verticalAlign=top;childLayout=stackLayout;horizontal=1;startSize=26;horizontalStack=0;resizeParent=1;resizeParentMax=0;resizeLast=0;collapsible=1;marginBottom=0;" parent="1" vertex="1">
                    <mxGeometry x="4001" y="374" width="263" height="52" as="geometry"/>
                </mxCell>
                <mxCell id="408" value=" " style="text;strokeColor=none;fillColor=none;align=left;verticalAlign=top;spacingLeft=4;spacingRight=4;overflow=hidden;rotatable=0;points=[[0,0.5],[1,0.5]];portConstraint=eastwest;" parent="407" vertex="1">
                    <mxGeometry y="26" width="263" height="26" as="geometry"/>
                </mxCell>
                <mxCell id="409" value="???????" style="swimlane;fontStyle=1;align=center;verticalAlign=top;childLayout=stackLayout;horizontal=1;startSize=26;horizontalStack=0;resizeParent=1;resizeParentMax=0;resizeLast=0;collapsible=1;marginBottom=0;" parent="1" vertex="1">
                    <mxGeometry x="3898" y="604" width="160" height="52" as="geometry"/>
                </mxCell>
                <mxCell id="410" value=" " style="text;strokeColor=none;fillColor=none;align=left;verticalAlign=top;spacingLeft=4;spacingRight=4;overflow=hidden;rotatable=0;points=[[0,0.5],[1,0.5]];portConstraint=eastwest;" parent="409" vertex="1">
                    <mxGeometry y="26" width="160" height="26" as="geometry"/>
                </mxCell>
                <mxCell id="411" value="Room" style="swimlane;fontStyle=1;align=center;verticalAlign=top;childLayout=stackLayout;horizontal=1;startSize=26;horizontalStack=0;resizeParent=1;resizeParentMax=0;resizeLast=0;collapsible=1;marginBottom=0;" parent="1" vertex="1">
                    <mxGeometry x="3898" y="714" width="160" height="52" as="geometry"/>
                </mxCell>
                <mxCell id="412" value=" " style="text;strokeColor=none;fillColor=none;align=left;verticalAlign=top;spacingLeft=4;spacingRight=4;overflow=hidden;rotatable=0;points=[[0,0.5],[1,0.5]];portConstraint=eastwest;" parent="411" vertex="1">
                    <mxGeometry y="26" width="160" height="26" as="geometry"/>
                </mxCell>
                <mxCell id="413" value="" style="endArrow=open;html=1;rounded=1;fontSize=28;endFill=0;edgeStyle=orthogonalEdgeStyle;jumpStyle=arc;" parent="1" source="409" target="411" edge="1">
                    <mxGeometry width="50" height="50" relative="1" as="geometry">
                        <mxPoint x="3954" y="700" as="sourcePoint"/>
                        <mxPoint x="3948" y="743" as="targetPoint"/>
                    </mxGeometry>
                </mxCell>
                <mxCell id="414" value="Booking" style="swimlane;fontStyle=1;align=center;verticalAlign=top;childLayout=stackLayout;horizontal=1;startSize=26;horizontalStack=0;resizeParent=1;resizeParentMax=0;resizeLast=0;collapsible=1;marginBottom=0;" parent="1" vertex="1">
                    <mxGeometry x="3897" y="827" width="160" height="52" as="geometry"/>
                </mxCell>
                <mxCell id="415" value=" " style="text;strokeColor=none;fillColor=none;align=left;verticalAlign=top;spacingLeft=4;spacingRight=4;overflow=hidden;rotatable=0;points=[[0,0.5],[1,0.5]];portConstraint=eastwest;" parent="414" vertex="1">
                    <mxGeometry y="26" width="160" height="26" as="geometry"/>
                </mxCell>
                <mxCell id="416" value="" style="endArrow=open;html=1;rounded=1;fontSize=28;endFill=0;edgeStyle=orthogonalEdgeStyle;jumpStyle=arc;startArrow=none;startFill=0;dashed=1;" parent="1" source="429" target="432" edge="1">
                    <mxGeometry width="50" height="50" relative="1" as="geometry">
                        <mxPoint x="4256" y="549" as="sourcePoint"/>
                        <mxPoint x="4254.999999999999" y="610" as="targetPoint"/>
                    </mxGeometry>
                </mxCell>
                <mxCell id="417" value="RoomService" style="swimlane;fontStyle=1;align=center;verticalAlign=top;childLayout=stackLayout;horizontal=1;startSize=26;horizontalStack=0;resizeParent=1;resizeParentMax=0;resizeLast=0;collapsible=1;marginBottom=0;" parent="1" vertex="1">
                    <mxGeometry x="3899" y="497" width="160" height="52" as="geometry"/>
                </mxCell>
                <mxCell id="418" value=" " style="text;strokeColor=none;fillColor=none;align=left;verticalAlign=top;spacingLeft=4;spacingRight=4;overflow=hidden;rotatable=0;points=[[0,0.5],[1,0.5]];portConstraint=eastwest;" parent="417" vertex="1">
                    <mxGeometry y="26" width="160" height="26" as="geometry"/>
                </mxCell>
                <mxCell id="419" value="" style="endArrow=open;dashed=1;html=1;rounded=1;fontSize=28;endFill=0;edgeStyle=orthogonalEdgeStyle;jumpStyle=arc;" parent="1" source="417" target="407" edge="1">
                    <mxGeometry width="50" height="50" relative="1" as="geometry">
                        <mxPoint x="4256" y="499" as="sourcePoint"/>
                        <mxPoint x="4330" y="499" as="targetPoint"/>
                        <Array as="points">
                            <mxPoint x="3979" y="461"/>
                            <mxPoint x="4133" y="461"/>
                        </Array>
                    </mxGeometry>
                </mxCell>
                <mxCell id="420" value="" style="endArrow=open;html=1;rounded=1;fontSize=28;endFill=0;edgeStyle=orthogonalEdgeStyle;jumpStyle=arc;" parent="1" source="417" target="409" edge="1">
                    <mxGeometry width="50" height="50" relative="1" as="geometry">
                        <mxPoint x="3919.25" y="615.5799999999999" as="sourcePoint"/>
                        <mxPoint x="3993.25" y="615.5799999999999" as="targetPoint"/>
                        <Array as="points">
                            <mxPoint x="3978" y="563"/>
                            <mxPoint x="3978" y="563"/>
                        </Array>
                    </mxGeometry>
                </mxCell>
                <mxCell id="421" value="n" style="text;html=1;align=center;verticalAlign=middle;resizable=0;points=[];autosize=1;strokeColor=none;fillColor=none;" parent="1" vertex="1">
                    <mxGeometry x="4272" y="586" width="17" height="18" as="geometry"/>
                </mxCell>
                <mxCell id="422" value="1" style="text;html=1;align=center;verticalAlign=middle;resizable=0;points=[];autosize=1;strokeColor=none;fillColor=none;" parent="1" vertex="1">
                    <mxGeometry x="4272" y="556" width="17" height="18" as="geometry"/>
                </mxCell>
                <mxCell id="423" value="n" style="text;html=1;align=center;verticalAlign=middle;resizable=0;points=[];autosize=1;strokeColor=none;fillColor=none;" parent="1" vertex="1">
                    <mxGeometry x="3983" y="689" width="17" height="18" as="geometry"/>
                </mxCell>
                <mxCell id="424" value="1" style="text;html=1;align=center;verticalAlign=middle;resizable=0;points=[];autosize=1;strokeColor=none;fillColor=none;" parent="1" vertex="1">
                    <mxGeometry x="3983" y="661" width="17" height="18" as="geometry"/>
                </mxCell>
                <mxCell id="425" value="1" style="text;html=1;align=center;verticalAlign=middle;resizable=0;points=[];autosize=1;strokeColor=none;fillColor=none;" parent="1" vertex="1">
                    <mxGeometry x="3983" y="581" width="17" height="18" as="geometry"/>
                </mxCell>
                <mxCell id="426" value="1" style="text;html=1;align=center;verticalAlign=middle;resizable=0;points=[];autosize=1;strokeColor=none;fillColor=none;" parent="1" vertex="1">
                    <mxGeometry x="3983" y="555" width="17" height="18" as="geometry"/>
                </mxCell>
                <mxCell id="427" value="1" style="text;html=1;align=center;verticalAlign=middle;resizable=0;points=[];autosize=1;strokeColor=none;fillColor=none;" parent="1" vertex="1">
                    <mxGeometry x="3956" y="475" width="17" height="18" as="geometry"/>
                </mxCell>
                <mxCell id="428" value="1" style="text;html=1;align=center;verticalAlign=middle;resizable=0;points=[];autosize=1;strokeColor=none;fillColor=none;" parent="1" vertex="1">
                    <mxGeometry x="4099" y="431" width="17" height="18" as="geometry"/>
                </mxCell>
                <mxCell id="429" value="RouteService" style="swimlane;fontStyle=1;align=center;verticalAlign=top;childLayout=stackLayout;horizontal=1;startSize=26;horizontalStack=0;resizeParent=1;resizeParentMax=0;resizeLast=0;collapsible=1;marginBottom=0;" parent="1" vertex="1">
                    <mxGeometry x="4181" y="495" width="160" height="52" as="geometry"/>
                </mxCell>
                <mxCell id="430" value=" " style="text;strokeColor=none;fillColor=none;align=left;verticalAlign=top;spacingLeft=4;spacingRight=4;overflow=hidden;rotatable=0;points=[[0,0.5],[1,0.5]];portConstraint=eastwest;" parent="429" vertex="1">
                    <mxGeometry y="26" width="160" height="26" as="geometry"/>
                </mxCell>
                <mxCell id="431" value="" style="endArrow=open;dashed=1;html=1;rounded=1;fontSize=28;endFill=0;edgeStyle=orthogonalEdgeStyle;jumpStyle=arc;" parent="1" source="429" target="407" edge="1">
                    <mxGeometry width="50" height="50" relative="1" as="geometry">
                        <mxPoint x="3989" y="507.0000000000002" as="sourcePoint"/>
                        <mxPoint x="4134" y="448" as="targetPoint"/>
                        <Array as="points">
                            <mxPoint x="4261" y="460"/>
                            <mxPoint x="4134" y="460"/>
                        </Array>
                    </mxGeometry>
                </mxCell>
                <mxCell id="432" value="Route" style="swimlane;fontStyle=1;align=center;verticalAlign=top;childLayout=stackLayout;horizontal=1;startSize=26;horizontalStack=0;resizeParent=1;resizeParentMax=0;resizeLast=0;collapsible=1;marginBottom=0;" parent="1" vertex="1">
                    <mxGeometry x="4181" y="611" width="160" height="52" as="geometry"/>
                </mxCell>
                <mxCell id="433" value=" " style="text;strokeColor=none;fillColor=none;align=left;verticalAlign=top;spacingLeft=4;spacingRight=4;overflow=hidden;rotatable=0;points=[[0,0.5],[1,0.5]];portConstraint=eastwest;" parent="432" vertex="1">
                    <mxGeometry y="26" width="160" height="26" as="geometry"/>
                </mxCell>
                <mxCell id="434" value="1" style="text;html=1;align=center;verticalAlign=middle;resizable=0;points=[];autosize=1;strokeColor=none;fillColor=none;" parent="1" vertex="1">
                    <mxGeometry x="3981" y="770" width="17" height="18" as="geometry"/>
                </mxCell>
                <mxCell id="435" value="" style="endArrow=open;html=1;rounded=1;fontSize=28;endFill=0;edgeStyle=orthogonalEdgeStyle;jumpStyle=arc;" parent="1" source="411" target="414" edge="1">
                    <mxGeometry width="50" height="50" relative="1" as="geometry">
                        <mxPoint x="3986" y="768" as="sourcePoint"/>
                        <mxPoint x="3986" y="826" as="targetPoint"/>
                        <Array as="points">
                            <mxPoint x="3977" y="782"/>
                            <mxPoint x="3977" y="782"/>
                        </Array>
                    </mxGeometry>
                </mxCell>
                <mxCell id="436" value="n" style="text;html=1;align=center;verticalAlign=middle;resizable=0;points=[];autosize=1;strokeColor=none;fillColor=none;" parent="1" vertex="1">
                    <mxGeometry x="3981" y="807" width="17" height="18" as="geometry"/>
                </mxCell>
                <mxCell id="438" value="1" style="text;html=1;align=center;verticalAlign=middle;resizable=0;points=[];autosize=1;strokeColor=none;fillColor=none;" parent="1" vertex="1">
                    <mxGeometry x="3541.5" y="441" width="17" height="18" as="geometry"/>
                </mxCell>
                <mxCell id="439" value="1" style="text;html=1;align=center;verticalAlign=middle;resizable=0;points=[];autosize=1;strokeColor=none;fillColor=none;" parent="1" vertex="1">
                    <mxGeometry x="3633" y="481" width="17" height="18" as="geometry"/>
                </mxCell>
                <mxCell id="440" value="1" style="text;html=1;align=center;verticalAlign=middle;resizable=0;points=[];autosize=1;strokeColor=none;fillColor=none;" parent="1" vertex="1">
                    <mxGeometry x="4237.5" y="467" width="17" height="18" as="geometry"/>
                </mxCell>
                <mxCell id="441" value="1" style="text;html=1;align=center;verticalAlign=middle;resizable=0;points=[];autosize=1;strokeColor=none;fillColor=none;" parent="1" vertex="1">
                    <mxGeometry x="4146" y="433" width="17" height="18" as="geometry"/>
                </mxCell>
                <mxCell id="442" value="&lt;font&gt;&lt;font style=&quot;font-size: 40px&quot;&gt;FIRST DRAFT NOT GOOD&lt;/font&gt;&lt;br&gt;&lt;/font&gt;" style="text;html=1;align=center;verticalAlign=middle;resizable=0;points=[];autosize=1;strokeColor=none;fillColor=none;fontSize=30;" parent="1" vertex="1">
                    <mxGeometry x="3295" y="244" width="497" height="44" as="geometry"/>
                </mxCell>
                <mxCell id="444" value="Chalmers Maps" style="swimlane;fontStyle=1;align=center;verticalAlign=top;childLayout=stackLayout;horizontal=1;startSize=26;horizontalStack=0;resizeParent=1;resizeParentMax=0;resizeLast=0;collapsible=1;marginBottom=0;" parent="1" vertex="1">
                    <mxGeometry x="4917" y="453" width="263" height="52" as="geometry"/>
                </mxCell>
                <mxCell id="445" value=" " style="text;strokeColor=none;fillColor=none;align=left;verticalAlign=top;spacingLeft=4;spacingRight=4;overflow=hidden;rotatable=0;points=[[0,0.5],[1,0.5]];portConstraint=eastwest;" parent="444" vertex="1">
                    <mxGeometry y="26" width="263" height="26" as="geometry"/>
                </mxCell>
                <mxCell id="448" value="Room" style="swimlane;fontStyle=1;align=center;verticalAlign=top;childLayout=stackLayout;horizontal=1;startSize=26;horizontalStack=0;resizeParent=1;resizeParentMax=0;resizeLast=0;collapsible=1;marginBottom=0;" parent="1" vertex="1">
                    <mxGeometry x="4815" y="689" width="160" height="52" as="geometry">
                        <mxRectangle x="2555" y="689" width="61" height="26" as="alternateBounds"/>
                    </mxGeometry>
                </mxCell>
                <mxCell id="449" value=" " style="text;strokeColor=none;fillColor=none;align=left;verticalAlign=top;spacingLeft=4;spacingRight=4;overflow=hidden;rotatable=0;points=[[0,0.5],[1,0.5]];portConstraint=eastwest;" parent="448" vertex="1">
                    <mxGeometry y="26" width="160" height="26" as="geometry"/>
                </mxCell>
                <mxCell id="450" value="" style="endArrow=open;html=1;rounded=1;fontSize=28;endFill=0;edgeStyle=orthogonalEdgeStyle;jumpStyle=arc;" parent="1" source="455" target="448" edge="1">
                    <mxGeometry width="50" height="50" relative="1" as="geometry">
                        <mxPoint x="4895" y="631" as="sourcePoint"/>
                        <mxPoint x="4865" y="718" as="targetPoint"/>
                        <Array as="points">
                            <mxPoint x="4895" y="640"/>
                            <mxPoint x="4895" y="640"/>
                        </Array>
                    </mxGeometry>
                </mxCell>
                <mxCell id="451" value="Booking" style="swimlane;fontStyle=1;align=center;verticalAlign=top;childLayout=stackLayout;horizontal=1;startSize=26;horizontalStack=0;resizeParent=1;resizeParentMax=0;resizeLast=0;collapsible=1;marginBottom=0;" parent="1" vertex="1">
                    <mxGeometry x="4814" y="802" width="160" height="52" as="geometry"/>
                </mxCell>
                <mxCell id="452" value=" " style="text;strokeColor=none;fillColor=none;align=left;verticalAlign=top;spacingLeft=4;spacingRight=4;overflow=hidden;rotatable=0;points=[[0,0.5],[1,0.5]];portConstraint=eastwest;" parent="451" vertex="1">
                    <mxGeometry y="26" width="160" height="26" as="geometry"/>
                </mxCell>
                <mxCell id="453" value="" style="endArrow=open;html=1;rounded=1;fontSize=28;endFill=0;edgeStyle=orthogonalEdgeStyle;jumpStyle=arc;startArrow=none;startFill=0;" parent="1" source="466" target="469" edge="1">
                    <mxGeometry width="50" height="50" relative="1" as="geometry">
                        <mxPoint x="5249" y="626" as="sourcePoint"/>
                        <mxPoint x="5247.999999999999" y="687" as="targetPoint"/>
                    </mxGeometry>
                </mxCell>
                <mxCell id="454" value="Room service" style="swimlane;fontStyle=1;align=center;verticalAlign=top;childLayout=stackLayout;horizontal=1;startSize=26;horizontalStack=0;resizeParent=1;resizeParentMax=0;resizeLast=0;collapsible=1;marginBottom=0;" parent="1" vertex="1">
                    <mxGeometry x="4815" y="576" width="160" height="52" as="geometry"/>
                </mxCell>
                <mxCell id="455" value=" " style="text;strokeColor=none;fillColor=none;align=left;verticalAlign=top;spacingLeft=4;spacingRight=4;overflow=hidden;rotatable=0;points=[[0,0.5],[1,0.5]];portConstraint=eastwest;" parent="454" vertex="1">
                    <mxGeometry y="26" width="160" height="26" as="geometry"/>
                </mxCell>
                <mxCell id="456" value="" style="endArrow=open;html=1;rounded=1;fontSize=28;endFill=0;edgeStyle=orthogonalEdgeStyle;jumpStyle=arc;" parent="1" source="454" target="444" edge="1">
                    <mxGeometry width="50" height="50" relative="1" as="geometry">
                        <mxPoint x="5172" y="578" as="sourcePoint"/>
                        <mxPoint x="5246" y="578" as="targetPoint"/>
                        <Array as="points">
                            <mxPoint x="4895" y="540"/>
                            <mxPoint x="5049" y="540"/>
                        </Array>
                    </mxGeometry>
                </mxCell>
                <mxCell id="458" value="n" style="text;html=1;align=center;verticalAlign=middle;resizable=0;points=[];autosize=1;strokeColor=none;fillColor=none;" parent="1" vertex="1">
                    <mxGeometry x="5265" y="663" width="17" height="18" as="geometry"/>
                </mxCell>
                <mxCell id="459" value="1" style="text;html=1;align=center;verticalAlign=middle;resizable=0;points=[];autosize=1;strokeColor=none;fillColor=none;" parent="1" vertex="1">
                    <mxGeometry x="5265" y="633" width="17" height="18" as="geometry"/>
                </mxCell>
                <mxCell id="460" value="n" style="text;html=1;align=center;verticalAlign=middle;resizable=0;points=[];autosize=1;strokeColor=none;fillColor=none;" parent="1" vertex="1">
                    <mxGeometry x="4900" y="664" width="17" height="18" as="geometry"/>
                </mxCell>
                <mxCell id="461" value="1" style="text;html=1;align=center;verticalAlign=middle;resizable=0;points=[];autosize=1;strokeColor=none;fillColor=none;" parent="1" vertex="1">
                    <mxGeometry x="4900" y="636" width="17" height="18" as="geometry"/>
                </mxCell>
                <mxCell id="464" value="1" style="text;html=1;align=center;verticalAlign=middle;resizable=0;points=[];autosize=1;strokeColor=none;fillColor=none;" parent="1" vertex="1">
                    <mxGeometry x="4872" y="554" width="17" height="18" as="geometry"/>
                </mxCell>
                <mxCell id="465" value="1" style="text;html=1;align=center;verticalAlign=middle;resizable=0;points=[];autosize=1;strokeColor=none;fillColor=none;" parent="1" vertex="1">
                    <mxGeometry x="5020" y="510" width="17" height="18" as="geometry"/>
                </mxCell>
                <mxCell id="466" value="Route service" style="swimlane;fontStyle=1;align=center;verticalAlign=top;childLayout=stackLayout;horizontal=1;startSize=26;horizontalStack=0;resizeParent=1;resizeParentMax=0;resizeLast=0;collapsible=1;marginBottom=0;" parent="1" vertex="1">
                    <mxGeometry x="5174" y="572" width="160" height="52" as="geometry"/>
                </mxCell>
                <mxCell id="467" value=" " style="text;strokeColor=none;fillColor=none;align=left;verticalAlign=top;spacingLeft=4;spacingRight=4;overflow=hidden;rotatable=0;points=[[0,0.5],[1,0.5]];portConstraint=eastwest;" parent="466" vertex="1">
                    <mxGeometry y="26" width="160" height="26" as="geometry"/>
                </mxCell>
                <mxCell id="468" value="" style="endArrow=open;html=1;rounded=1;fontSize=28;endFill=0;edgeStyle=orthogonalEdgeStyle;jumpStyle=arc;exitX=0.5;exitY=0;exitDx=0;exitDy=0;" parent="1" source="466" target="444" edge="1">
                    <mxGeometry width="50" height="50" relative="1" as="geometry">
                        <mxPoint x="4905" y="586.0000000000002" as="sourcePoint"/>
                        <mxPoint x="5050" y="527" as="targetPoint"/>
                        <Array as="points">
                            <mxPoint x="5254" y="541"/>
                            <mxPoint x="5049" y="541"/>
                        </Array>
                    </mxGeometry>
                </mxCell>
                <mxCell id="469" value="Route" style="swimlane;fontStyle=1;align=center;verticalAlign=top;childLayout=stackLayout;horizontal=1;startSize=26;horizontalStack=0;resizeParent=1;resizeParentMax=0;resizeLast=0;collapsible=1;marginBottom=0;" parent="1" vertex="1">
                    <mxGeometry x="5174" y="688" width="160" height="52" as="geometry"/>
                </mxCell>
                <mxCell id="470" value=" " style="text;strokeColor=none;fillColor=none;align=left;verticalAlign=top;spacingLeft=4;spacingRight=4;overflow=hidden;rotatable=0;points=[[0,0.5],[1,0.5]];portConstraint=eastwest;" parent="469" vertex="1">
                    <mxGeometry y="26" width="160" height="26" as="geometry"/>
                </mxCell>
                <mxCell id="471" value="1" style="text;html=1;align=center;verticalAlign=middle;resizable=0;points=[];autosize=1;strokeColor=none;fillColor=none;" parent="1" vertex="1">
                    <mxGeometry x="4898" y="745" width="17" height="18" as="geometry"/>
                </mxCell>
                <mxCell id="472" value="" style="endArrow=open;html=1;rounded=1;fontSize=28;endFill=0;edgeStyle=orthogonalEdgeStyle;jumpStyle=arc;" parent="1" source="448" target="451" edge="1">
                    <mxGeometry width="50" height="50" relative="1" as="geometry">
                        <mxPoint x="4903" y="743" as="sourcePoint"/>
                        <mxPoint x="4903" y="801" as="targetPoint"/>
                        <Array as="points">
                            <mxPoint x="4894" y="757"/>
                            <mxPoint x="4894" y="757"/>
                        </Array>
                    </mxGeometry>
                </mxCell>
                <mxCell id="473" value="n" style="text;html=1;align=center;verticalAlign=middle;resizable=0;points=[];autosize=1;strokeColor=none;fillColor=none;" parent="1" vertex="1">
                    <mxGeometry x="4898" y="782" width="17" height="18" as="geometry"/>
                </mxCell>
                <mxCell id="474" value="1" style="text;html=1;align=center;verticalAlign=middle;resizable=0;points=[];autosize=1;strokeColor=none;fillColor=none;" parent="1" vertex="1">
                    <mxGeometry x="5057.5" y="510" width="17" height="18" as="geometry"/>
                </mxCell>
                <mxCell id="475" value="1" style="text;html=1;align=center;verticalAlign=middle;resizable=0;points=[];autosize=1;strokeColor=none;fillColor=none;" parent="1" vertex="1">
                    <mxGeometry x="5227" y="548" width="17" height="18" as="geometry"/>
                </mxCell>
                <mxCell id="476" value="" style="endArrow=open;html=1;rounded=1;fontSize=28;endFill=0;edgeStyle=orthogonalEdgeStyle;jumpStyle=arc;" parent="1" source="469" target="479" edge="1">
                    <mxGeometry width="50" height="50" relative="1" as="geometry">
                        <mxPoint x="5406" y="715" as="sourcePoint"/>
                        <mxPoint x="5406" y="768" as="targetPoint"/>
                    </mxGeometry>
                </mxCell>
                <mxCell id="477" value="n" style="text;html=1;align=center;verticalAlign=middle;resizable=0;points=[];autosize=1;strokeColor=none;fillColor=none;" parent="1" vertex="1">
                    <mxGeometry x="5257" y="773" width="17" height="18" as="geometry"/>
                </mxCell>
                <mxCell id="478" value="1" style="text;html=1;align=center;verticalAlign=middle;resizable=0;points=[];autosize=1;strokeColor=none;fillColor=none;" parent="1" vertex="1">
                    <mxGeometry x="5257" y="743" width="17" height="18" as="geometry"/>
                </mxCell>
                <mxCell id="479" value="Location" style="swimlane;fontStyle=1;align=center;verticalAlign=top;childLayout=stackLayout;horizontal=1;startSize=26;horizontalStack=0;resizeParent=1;resizeParentMax=0;resizeLast=0;collapsible=1;marginBottom=0;" parent="1" vertex="1">
                    <mxGeometry x="5174" y="791" width="160" height="52" as="geometry"/>
                </mxCell>
                <mxCell id="480" value=" " style="text;strokeColor=none;fillColor=none;align=left;verticalAlign=top;spacingLeft=4;spacingRight=4;overflow=hidden;rotatable=0;points=[[0,0.5],[1,0.5]];portConstraint=eastwest;" parent="479" vertex="1">
                    <mxGeometry y="26" width="160" height="26" as="geometry"/>
                </mxCell>
                <mxCell id="504" style="edgeStyle=orthogonalEdgeStyle;jumpStyle=arc;html=1;endArrow=open;endFill=0;fontStyle=2" parent="1" source="493" target="481" edge="1">
                    <mxGeometry relative="1" as="geometry">
                        <Array as="points"/>
                        <mxPoint x="4656" y="548" as="targetPoint"/>
                        <mxPoint x="4747" y="541" as="sourcePoint"/>
                    </mxGeometry>
                </mxCell>
                <mxCell id="481" value="Search result" style="swimlane;fontStyle=1;align=center;verticalAlign=top;childLayout=stackLayout;horizontal=1;startSize=26;horizontalStack=0;resizeParent=1;resizeParentMax=0;resizeLast=0;collapsible=1;marginBottom=0;" parent="1" vertex="1">
                    <mxGeometry x="4622" y="453" width="160" height="52" as="geometry"/>
                </mxCell>
                <mxCell id="482" value=" " style="text;strokeColor=none;fillColor=none;align=left;verticalAlign=top;spacingLeft=4;spacingRight=4;overflow=hidden;rotatable=0;points=[[0,0.5],[1,0.5]];portConstraint=eastwest;" parent="481" vertex="1">
                    <mxGeometry y="26" width="160" height="26" as="geometry"/>
                </mxCell>
                <mxCell id="488" value="" style="endArrow=open;html=1;rounded=1;fontSize=28;endFill=0;edgeStyle=orthogonalEdgeStyle;jumpStyle=arc;" parent="1" source="448" target="479" edge="1">
                    <mxGeometry width="50" height="50" relative="1" as="geometry">
                        <mxPoint x="5004" y="731" as="sourcePoint"/>
                        <mxPoint x="5004" y="782" as="targetPoint"/>
                        <Array as="points">
                            <mxPoint x="4895" y="772"/>
                            <mxPoint x="5254" y="772"/>
                        </Array>
                    </mxGeometry>
                </mxCell>
                <mxCell id="489" value="1" style="text;html=1;align=center;verticalAlign=middle;resizable=0;points=[];autosize=1;strokeColor=none;fillColor=none;" parent="1" vertex="1">
                    <mxGeometry x="5230" y="773" width="17" height="18" as="geometry"/>
                </mxCell>
                <mxCell id="514" style="edgeStyle=orthogonalEdgeStyle;html=1;endArrow=open;endFill=0;" parent="1" source="491" target="466" edge="1">
                    <mxGeometry relative="1" as="geometry"/>
                </mxCell>
                <mxCell id="491" value="Map view" style="swimlane;fontStyle=1;align=center;verticalAlign=top;childLayout=stackLayout;horizontal=1;startSize=26;horizontalStack=0;resizeParent=1;resizeParentMax=0;resizeLast=0;collapsible=1;marginBottom=0;" parent="1" vertex="1">
                    <mxGeometry x="4956" y="332" width="160" height="52" as="geometry"/>
                </mxCell>
                <mxCell id="492" value=" " style="text;strokeColor=none;fillColor=none;align=left;verticalAlign=top;spacingLeft=4;spacingRight=4;overflow=hidden;rotatable=0;points=[[0,0.5],[1,0.5]];portConstraint=eastwest;" parent="491" vertex="1">
                    <mxGeometry y="26" width="160" height="26" as="geometry"/>
                </mxCell>
                <mxCell id="507" value="" style="edgeStyle=orthogonalEdgeStyle;html=1;entryX=0;entryY=0.5;entryDx=0;entryDy=0;endArrow=open;endFill=0;" parent="1" source="493" target="454" edge="1">
                    <mxGeometry relative="1" as="geometry"/>
                </mxCell>
                <mxCell id="493" value="Booking service" style="swimlane;fontStyle=1;align=center;verticalAlign=top;childLayout=stackLayout;horizontal=1;startSize=26;horizontalStack=0;resizeParent=1;resizeParentMax=0;resizeLast=0;collapsible=1;marginBottom=0;" parent="1" vertex="1">
                    <mxGeometry x="4622" y="576" width="160" height="52" as="geometry"/>
                </mxCell>
                <mxCell id="494" value=" " style="text;strokeColor=none;fillColor=none;align=left;verticalAlign=top;spacingLeft=4;spacingRight=4;overflow=hidden;rotatable=0;points=[[0,0.5],[1,0.5]];portConstraint=eastwest;" parent="493" vertex="1">
                    <mxGeometry y="26" width="160" height="26" as="geometry"/>
                </mxCell>
                <mxCell id="496" value="n" style="text;html=1;align=center;verticalAlign=middle;resizable=0;points=[];autosize=1;strokeColor=none;fillColor=none;" parent="1" vertex="1">
                    <mxGeometry x="4797" y="679" width="17" height="18" as="geometry"/>
                </mxCell>
                <mxCell id="497" value="1" style="text;html=1;align=center;verticalAlign=middle;resizable=0;points=[];autosize=1;strokeColor=none;fillColor=none;" parent="1" vertex="1">
                    <mxGeometry x="5126" y="362" width="17" height="18" as="geometry"/>
                </mxCell>
                <mxCell id="498" style="edgeStyle=orthogonalEdgeStyle;html=1;endArrow=open;endFill=0;jumpStyle=arc;" parent="1" source="494" target="448" edge="1">
                    <mxGeometry relative="1" as="geometry">
                        <Array as="points">
                            <mxPoint x="4702" y="715"/>
                        </Array>
                    </mxGeometry>
                </mxCell>
                <mxCell id="499" style="edgeStyle=orthogonalEdgeStyle;html=1;endArrow=open;endFill=0;jumpStyle=arc;" parent="1" source="493" target="451" edge="1">
                    <mxGeometry relative="1" as="geometry">
                        <mxPoint x="4702" y="628" as="sourcePoint"/>
                        <mxPoint x="4815" y="715" as="targetPoint"/>
                        <Array as="points">
                            <mxPoint x="4702" y="828"/>
                        </Array>
                    </mxGeometry>
                </mxCell>
                <mxCell id="501" value="0..1" style="text;html=1;align=center;verticalAlign=middle;resizable=0;points=[];autosize=1;strokeColor=none;fillColor=none;" parent="1" vertex="1">
                    <mxGeometry x="5265" y="547" width="30" height="18" as="geometry"/>
                </mxCell>
                <mxCell id="505" value="Main view" style="swimlane;fontStyle=1;align=center;verticalAlign=top;childLayout=stackLayout;horizontal=1;startSize=26;horizontalStack=0;resizeParent=1;resizeParentMax=0;resizeLast=0;collapsible=1;marginBottom=0;" parent="1" vertex="1">
                    <mxGeometry x="4622" y="332" width="160" height="52" as="geometry"/>
                </mxCell>
                <mxCell id="506" value=" " style="text;strokeColor=none;fillColor=none;align=left;verticalAlign=top;spacingLeft=4;spacingRight=4;overflow=hidden;rotatable=0;points=[[0,0.5],[1,0.5]];portConstraint=eastwest;" parent="505" vertex="1">
                    <mxGeometry y="26" width="160" height="26" as="geometry"/>
                </mxCell>
                <mxCell id="508" style="edgeStyle=orthogonalEdgeStyle;jumpStyle=arc;html=1;endArrow=open;endFill=0;fontStyle=2" parent="1" source="505" target="481" edge="1">
                    <mxGeometry relative="1" as="geometry">
                        <Array as="points">
                            <mxPoint x="4702" y="420"/>
                            <mxPoint x="4702" y="420"/>
                        </Array>
                        <mxPoint x="4694" y="465" as="targetPoint"/>
                        <mxPoint x="4712" y="515.0000000000002" as="sourcePoint"/>
                    </mxGeometry>
                </mxCell>
                <mxCell id="509" value="n" style="text;html=1;align=center;verticalAlign=middle;resizable=0;points=[];autosize=1;strokeColor=none;fillColor=none;" parent="1" vertex="1">
                    <mxGeometry x="4710" y="507" width="17" height="18" as="geometry"/>
                </mxCell>
                <mxCell id="510" value="1" style="text;html=1;align=center;verticalAlign=middle;resizable=0;points=[];autosize=1;strokeColor=none;fillColor=none;" parent="1" vertex="1">
                    <mxGeometry x="4710" y="554" width="17" height="18" as="geometry"/>
                </mxCell>
                <mxCell id="511" value="n" style="text;html=1;align=center;verticalAlign=middle;resizable=0;points=[];autosize=1;strokeColor=none;fillColor=none;" parent="1" vertex="1">
                    <mxGeometry x="4710" y="431" width="17" height="18" as="geometry"/>
                </mxCell>
                <mxCell id="512" value="1" style="text;html=1;align=center;verticalAlign=middle;resizable=0;points=[];autosize=1;strokeColor=none;fillColor=none;" parent="1" vertex="1">
                    <mxGeometry x="4710" y="391" width="17" height="18" as="geometry"/>
                </mxCell>
                <mxCell id="513" value="&lt;font&gt;&lt;font style=&quot;font-size: 40px&quot;&gt;DOMAIN MODEL GETAROOM&lt;/font&gt;&lt;br&gt;&lt;/font&gt;" style="text;html=1;align=center;verticalAlign=middle;resizable=0;points=[];autosize=1;strokeColor=none;fillColor=none;fontSize=30;" parent="1" vertex="1">
                    <mxGeometry x="4702" y="252" width="563" height="44" as="geometry"/>
                </mxCell>
                <mxCell id="515" style="edgeStyle=orthogonalEdgeStyle;jumpStyle=arc;html=1;endArrow=open;endFill=0;fontStyle=2" parent="1" source="505" target="491" edge="1">
                    <mxGeometry relative="1" as="geometry">
                        <Array as="points"/>
                        <mxPoint x="4712.027027027027" y="463" as="targetPoint"/>
                        <mxPoint x="4712.027027027027" y="393.9999999999998" as="sourcePoint"/>
                    </mxGeometry>
                </mxCell>
                <mxCell id="516" value="1" style="text;html=1;align=center;verticalAlign=middle;resizable=0;points=[];autosize=1;strokeColor=none;fillColor=none;" parent="1" vertex="1">
                    <mxGeometry x="4785" y="362" width="17" height="18" as="geometry"/>
                </mxCell>
                <mxCell id="517" value="1" style="text;html=1;align=center;verticalAlign=middle;resizable=0;points=[];autosize=1;strokeColor=none;fillColor=none;" parent="1" vertex="1">
                    <mxGeometry x="4935" y="362" width="17" height="18" as="geometry"/>
                </mxCell>
                <mxCell id="518" value="" style="whiteSpace=wrap;html=1;fontSize=18;fillColor=none;" parent="1" vertex="1">
                    <mxGeometry x="4554" y="-508" width="798" height="728" as="geometry"/>
                </mxCell>
                <mxCell id="519" value="n" style="text;html=1;align=center;verticalAlign=middle;resizable=0;points=[];autosize=1;strokeColor=none;fillColor=none;" parent="1" vertex="1">
                    <mxGeometry x="4785" y="835" width="17" height="18" as="geometry"/>
                </mxCell>
                <mxCell id="520" value="1" style="text;html=1;align=center;verticalAlign=middle;resizable=0;points=[];autosize=1;strokeColor=none;fillColor=none;" parent="1" vertex="1">
                    <mxGeometry x="4710" y="631" width="17" height="18" as="geometry"/>
                </mxCell>
                <mxCell id="521" value="1" style="text;html=1;align=center;verticalAlign=middle;resizable=0;points=[];autosize=1;strokeColor=none;fillColor=none;" parent="1" vertex="1">
                    <mxGeometry x="4676" y="631" width="17" height="18" as="geometry"/>
                </mxCell>
                <mxCell id="527" value="Location" style="swimlane;fontStyle=1;align=center;verticalAlign=top;childLayout=stackLayout;horizontal=1;startSize=26;horizontalStack=0;resizeParent=1;resizeParentMax=0;resizeLast=0;collapsible=1;marginBottom=0;" vertex="1" parent="1">
                    <mxGeometry x="23" y="1250" width="160" height="66" as="geometry"/>
                </mxCell>
                <mxCell id="528" value="+ latitude(): double&#10;+ longitude(): double" style="text;strokeColor=none;fillColor=none;align=left;verticalAlign=top;spacingLeft=4;spacingRight=4;overflow=hidden;rotatable=0;points=[[0,0.5],[1,0.5]];portConstraint=eastwest;" vertex="1" parent="527">
                    <mxGeometry y="26" width="160" height="40" as="geometry"/>
                </mxCell>
                <mxCell id="539" value="Route" style="swimlane;fontStyle=1;align=center;verticalAlign=top;childLayout=stackLayout;horizontal=1;startSize=26;horizontalStack=0;resizeParent=1;resizeParentMax=0;resizeLast=0;collapsible=1;marginBottom=0;" vertex="1" parent="1">
                    <mxGeometry x="1704" y="317.5" width="235" height="99" as="geometry"/>
                </mxCell>
                <mxCell id="540" value="+ distance(): double&#10;+ maneuvers(): List&lt;Location&gt;" style="text;strokeColor=none;fillColor=none;align=left;verticalAlign=top;spacingLeft=4;spacingRight=4;overflow=hidden;rotatable=0;points=[[0,0.5],[1,0.5]];portConstraint=eastwest;" vertex="1" parent="539">
                    <mxGeometry y="26" width="235" height="39" as="geometry"/>
                </mxCell>
                <mxCell id="541" value="" style="line;strokeWidth=1;fillColor=none;align=left;verticalAlign=middle;spacingTop=-1;spacingLeft=3;spacingRight=3;rotatable=0;labelPosition=right;points=[];portConstraint=eastwest;" vertex="1" parent="539">
                    <mxGeometry y="65" width="235" height="8" as="geometry"/>
                </mxCell>
                <mxCell id="542" value="+ fromJSON(JsonObject): Booking" style="text;strokeColor=none;fillColor=none;align=left;verticalAlign=top;spacingLeft=4;spacingRight=4;overflow=hidden;rotatable=0;points=[[0,0.5],[1,0.5]];portConstraint=eastwest;" vertex="1" parent="539">
                    <mxGeometry y="73" width="235" height="26" as="geometry"/>
                </mxCell>
                <mxCell id="543" value="SearchRecord" style="swimlane;fontStyle=1;align=center;verticalAlign=top;childLayout=stackLayout;horizontal=1;startSize=26;horizontalStack=0;resizeParent=1;resizeParentMax=0;resizeLast=0;collapsible=1;marginBottom=0;" vertex="1" parent="1">
                    <mxGeometry x="573" y="721" width="160" height="79" as="geometry"/>
                </mxCell>
                <mxCell id="544" value="+ room(): Room&#10;+ bookings(): List&lt;Booking&gt;&#10;+ birdsDistance(): double" style="text;strokeColor=none;fillColor=none;align=left;verticalAlign=top;spacingLeft=4;spacingRight=4;overflow=hidden;rotatable=0;points=[[0,0.5],[1,0.5]];portConstraint=eastwest;" vertex="1" parent="543">
                    <mxGeometry y="26" width="160" height="53" as="geometry"/>
                </mxCell>
                <mxCell id="545" value="SearchResult" style="swimlane;fontStyle=1;align=center;verticalAlign=top;childLayout=stackLayout;horizontal=1;startSize=26;horizontalStack=0;resizeParent=1;resizeParentMax=0;resizeLast=0;collapsible=1;marginBottom=0;" vertex="1" parent="1">
                    <mxGeometry x="1013" y="684" width="542" height="79" as="geometry"/>
                </mxCell>
                <mxCell id="546" value="+ searchRecords(): List&lt;SearchRecord&gt;&#10;+ getFilteredResults(Location,userLocation, int groupSize, Instant startTime): List&lt;SearchRecord&gt;" style="text;strokeColor=none;fillColor=none;align=left;verticalAlign=top;spacingLeft=4;spacingRight=4;overflow=hidden;rotatable=0;points=[[0,0.5],[1,0.5]];portConstraint=eastwest;" vertex="1" parent="545">
                    <mxGeometry y="26" width="542" height="53" as="geometry"/>
                </mxCell>
                <mxCell id="551" value="&lt;&lt; interface &gt;&gt;&#10;BookingServiceInterface" style="swimlane;fontStyle=1;align=center;verticalAlign=top;childLayout=stackLayout;horizontal=1;startSize=39;horizontalStack=0;resizeParent=1;resizeParentMax=0;resizeLast=0;collapsible=1;marginBottom=0;" vertex="1" parent="1">
                    <mxGeometry x="684" y="200" width="410" height="65" as="geometry"/>
                </mxCell>
                <mxCell id="554" value="+ getBookings(Room, Instant startTime, int weeksForward): List&lt;Booking&gt;" style="text;strokeColor=none;fillColor=none;align=left;verticalAlign=top;spacingLeft=4;spacingRight=4;overflow=hidden;rotatable=0;points=[[0,0.5],[1,0.5]];portConstraint=eastwest;" vertex="1" parent="551">
                    <mxGeometry y="39" width="410" height="26" as="geometry"/>
                </mxCell>
                <mxCell id="555" value="&lt;&lt; interface &gt;&gt;&#10;ChalmersMapsAPIInterface" style="swimlane;fontStyle=1;align=center;verticalAlign=top;childLayout=stackLayout;horizontal=1;startSize=39;horizontalStack=0;resizeParent=1;resizeParentMax=0;resizeLast=0;collapsible=1;marginBottom=0;" vertex="1" parent="1">
                    <mxGeometry x="266.5" y="91.5" width="410" height="125" as="geometry"/>
                </mxCell>
                <mxCell id="556" value="+ informationBoard(UUID): JsonObject&#10;+ timeEditSchedule(String identifier, int year, int week): JsonArray&#10;+ route(Location origin, Location destination): JsonObject&#10;+ getInfo(UUID): JsonObject&#10;+ geoJson(): JsonObject" style="text;strokeColor=none;fillColor=none;align=left;verticalAlign=top;spacingLeft=4;spacingRight=4;overflow=hidden;rotatable=0;points=[[0,0.5],[1,0.5]];portConstraint=eastwest;" vertex="1" parent="555">
                    <mxGeometry y="39" width="410" height="86" as="geometry"/>
                </mxCell>
                <mxCell id="557" value="" style="endArrow=block;dashed=1;html=1;rounded=1;fontSize=28;endFill=0;edgeStyle=orthogonalEdgeStyle;jumpStyle=arc;exitX=0.5;exitY=0;exitDx=0;exitDy=0;" edge="1" parent="1" source="282" target="555">
                    <mxGeometry width="50" height="50" relative="1" as="geometry">
                        <mxPoint x="-196.75" y="533.5799999999999" as="sourcePoint"/>
                        <mxPoint x="-122.75" y="533.5799999999999" as="targetPoint"/>
                    </mxGeometry>
                </mxCell>
                <mxCell id="558" value="" style="endArrow=block;dashed=1;html=1;rounded=1;fontSize=28;endFill=0;edgeStyle=orthogonalEdgeStyle;jumpStyle=arc;" edge="1" parent="1" source="547" target="551">
                    <mxGeometry width="50" height="50" relative="1" as="geometry">
                        <mxPoint x="481.5" y="303" as="sourcePoint"/>
                        <mxPoint x="481.5" y="226.5" as="targetPoint"/>
                        <Array as="points">
                            <mxPoint x="889" y="291"/>
                            <mxPoint x="889" y="291"/>
                        </Array>
                    </mxGeometry>
                </mxCell>
                <mxCell id="559" value="&lt;&lt; interface &gt;&gt;&#10;RoomServiceInterface" style="swimlane;fontStyle=1;align=center;verticalAlign=top;childLayout=stackLayout;horizontal=1;startSize=39;horizontalStack=0;resizeParent=1;resizeParentMax=0;resizeLast=0;collapsible=1;marginBottom=0;" vertex="1" parent="1">
                    <mxGeometry x="-174" y="140" width="410" height="79" as="geometry"/>
                </mxCell>
                <mxCell id="560" value="+ getRooms(): List&lt;Room&gt;&#10;+ RefreshRoomCache(): void" style="text;strokeColor=none;fillColor=none;align=left;verticalAlign=top;spacingLeft=4;spacingRight=4;overflow=hidden;rotatable=0;points=[[0,0.5],[1,0.5]];portConstraint=eastwest;" vertex="1" parent="559">
                    <mxGeometry y="39" width="410" height="40" as="geometry"/>
                </mxCell>
                <mxCell id="561" value="" style="endArrow=open;dashed=1;html=1;rounded=1;fontSize=28;endFill=0;edgeStyle=orthogonalEdgeStyle;jumpStyle=arc;" edge="1" parent="1" source="332" target="559">
                    <mxGeometry width="50" height="50" relative="1" as="geometry">
                        <mxPoint x="129" y="307" as="sourcePoint"/>
                        <mxPoint x="350" y="307" as="targetPoint"/>
                    </mxGeometry>
                </mxCell>
                <mxCell id="562" value="&lt;&lt; interface &gt;&gt;&#10;RouteServiceInterface" style="swimlane;fontStyle=1;align=center;verticalAlign=top;childLayout=stackLayout;horizontal=1;startSize=39;horizontalStack=0;resizeParent=1;resizeParentMax=0;resizeLast=0;collapsible=1;marginBottom=0;" vertex="1" parent="1">
                    <mxGeometry x="1143" y="190" width="442" height="95" as="geometry"/>
                </mxCell>
                <mxCell id="563" value="+ getRoute(Location origin, Location destination): Route&#10;+ getWalkingDistance(Location origin, Location destination): double&#10;+ getBirdsDistance(Location origin, Location destination): double" style="text;strokeColor=none;fillColor=none;align=left;verticalAlign=top;spacingLeft=4;spacingRight=4;overflow=hidden;rotatable=0;points=[[0,0.5],[1,0.5]];portConstraint=eastwest;" vertex="1" parent="562">
                    <mxGeometry y="39" width="442" height="56" as="geometry"/>
                </mxCell>
                <mxCell id="564" value="RouteService" style="swimlane;fontStyle=1;align=center;verticalAlign=top;childLayout=stackLayout;horizontal=1;startSize=26;horizontalStack=0;resizeParent=1;resizeParentMax=0;resizeLast=0;collapsible=1;marginBottom=0;" vertex="1" parent="1">
                    <mxGeometry x="1159" y="328" width="410" height="78" as="geometry"/>
                </mxCell>
                <mxCell id="566" value="" style="endArrow=block;dashed=1;html=1;rounded=1;fontSize=28;endFill=0;edgeStyle=orthogonalEdgeStyle;jumpStyle=arc;" edge="1" parent="1" source="564" target="562">
                    <mxGeometry width="50" height="50" relative="1" as="geometry">
                        <mxPoint x="1377" y="356" as="sourcePoint"/>
                        <mxPoint x="899" y="275" as="targetPoint"/>
                    </mxGeometry>
                </mxCell>
                <mxCell id="567" value="" style="endArrow=open;html=1;rounded=1;fontSize=28;endFill=0;edgeStyle=orthogonalEdgeStyle;jumpStyle=arc;" edge="1" parent="1" source="313" target="527">
                    <mxGeometry width="50" height="50" relative="1" as="geometry">
                        <mxPoint x="238" y="868.9999999999999" as="sourcePoint"/>
                        <mxPoint x="312" y="868.9999999999999" as="targetPoint"/>
                    </mxGeometry>
                </mxCell>
                <mxCell id="568" value="RoomProvider&lt;List&lt;Room&gt;&gt;" style="swimlane;fontStyle=1;align=center;verticalAlign=top;childLayout=stackLayout;horizontal=1;startSize=26;horizontalStack=0;resizeParent=1;resizeParentMax=0;resizeLast=0;collapsible=1;marginBottom=0;" vertex="1" parent="1">
                    <mxGeometry x="291.5" y="614" width="235" height="52" as="geometry"/>
                </mxCell>
                <mxCell id="572" value="&lt;&lt; interface &gt;&gt;&#10;CacheUpdateProvider&lt;T&gt;" style="swimlane;fontStyle=1;align=center;verticalAlign=top;childLayout=stackLayout;horizontal=1;startSize=39;horizontalStack=0;resizeParent=1;resizeParentMax=0;resizeLast=0;collapsible=1;marginBottom=0;" vertex="1" parent="1">
                    <mxGeometry x="279" y="495" width="260" height="72" as="geometry"/>
                </mxCell>
                <mxCell id="573" value="+ getNewDataToCache(): List&lt;Room&gt;" style="text;strokeColor=none;fillColor=none;align=left;verticalAlign=top;spacingLeft=4;spacingRight=4;overflow=hidden;rotatable=0;points=[[0,0.5],[1,0.5]];portConstraint=eastwest;" vertex="1" parent="572">
                    <mxGeometry y="39" width="260" height="33" as="geometry"/>
                </mxCell>
                <mxCell id="575" value="" style="endArrow=open;html=1;rounded=1;fontSize=28;endFill=0;edgeStyle=orthogonalEdgeStyle;jumpStyle=arc;exitX=1;exitY=0.5;exitDx=0;exitDy=0;" edge="1" parent="1" source="564" target="539">
                    <mxGeometry width="50" height="50" relative="1" as="geometry">
                        <mxPoint x="1574" y="353.5799999999999" as="sourcePoint"/>
                        <mxPoint x="1648" y="353.5799999999999" as="targetPoint"/>
                    </mxGeometry>
                </mxCell>
                <mxCell id="576" value="" style="endArrow=open;dashed=1;html=1;rounded=1;fontSize=28;endFill=0;edgeStyle=orthogonalEdgeStyle;jumpStyle=arc;" edge="1" parent="1" source="309" target="572">
                    <mxGeometry width="50" height="50" relative="1" as="geometry">
                        <mxPoint x="200" y="408.9999999999999" as="sourcePoint"/>
                        <mxPoint x="274" y="408.9999999999999" as="targetPoint"/>
                    </mxGeometry>
                </mxCell>
                <mxCell id="577" value="&lt;&lt; interface &gt;&gt;&#10;GenericCacheInterface&lt;T&gt;" style="swimlane;fontStyle=1;align=center;verticalAlign=top;childLayout=stackLayout;horizontal=1;startSize=39;horizontalStack=0;resizeParent=1;resizeParentMax=0;resizeLast=0;collapsible=1;marginBottom=0;" vertex="1" parent="1">
                    <mxGeometry x="248" y="364" width="442" height="97" as="geometry"/>
                </mxCell>
                <mxCell id="578" value="+ RefreshCache(): void&#10;+ GetLastCacheRefreshInstant: Instant&#10;+ getData(): List&lt;T&gt;" style="text;strokeColor=none;fillColor=none;align=left;verticalAlign=top;spacingLeft=4;spacingRight=4;overflow=hidden;rotatable=0;points=[[0,0.5],[1,0.5]];portConstraint=eastwest;" vertex="1" parent="577">
                    <mxGeometry y="39" width="442" height="58" as="geometry"/>
                </mxCell>
                <mxCell id="579" value="" style="endArrow=block;html=1;rounded=1;fontSize=28;endFill=0;edgeStyle=orthogonalEdgeStyle;jumpStyle=arc;exitX=0.5;exitY=0;exitDx=0;exitDy=0;" edge="1" parent="1" source="568" target="572">
                    <mxGeometry width="50" height="50" relative="1" as="geometry">
                        <mxPoint x="687" y="562.66" as="sourcePoint"/>
                        <mxPoint x="761" y="562.66" as="targetPoint"/>
                    </mxGeometry>
                </mxCell>
                <mxCell id="580" value="" style="endArrow=open;html=1;rounded=1;fontSize=28;endFill=0;edgeStyle=orthogonalEdgeStyle;jumpStyle=arc;" edge="1" parent="1" source="323" target="547">
                    <mxGeometry width="50" height="50" relative="1" as="geometry">
                        <mxPoint x="375" y="1154" as="sourcePoint"/>
                        <mxPoint x="449" y="1154" as="targetPoint"/>
                    </mxGeometry>
                </mxCell>
                <mxCell id="547" value="BookingService" style="swimlane;fontStyle=1;align=center;verticalAlign=top;childLayout=stackLayout;horizontal=1;startSize=26;horizontalStack=0;resizeParent=1;resizeParentMax=0;resizeLast=0;collapsible=1;marginBottom=0;" vertex="1" parent="1">
                    <mxGeometry x="680" y="298" width="410" height="52" as="geometry"/>
                </mxCell>
                <mxCell id="581" value="" style="endArrow=open;html=1;rounded=1;fontSize=28;endFill=0;edgeStyle=orthogonalEdgeStyle;jumpStyle=arc;" edge="1" parent="1" source="527" target="539">
                    <mxGeometry width="50" height="50" relative="1" as="geometry">
                        <mxPoint x="497" y="1018" as="sourcePoint"/>
                        <mxPoint x="571" y="1018" as="targetPoint"/>
                    </mxGeometry>
                </mxCell>
                <mxCell id="585" value="BookButton" style="swimlane;fontStyle=1;align=center;verticalAlign=top;childLayout=stackLayout;horizontal=1;startSize=26;horizontalStack=0;resizeParent=1;resizeParentMax=0;resizeLast=0;collapsible=1;marginBottom=0;" vertex="1" parent="1">
                    <mxGeometry x="2869" y="1914" width="160" height="59" as="geometry"/>
                </mxCell>
                <mxCell id="586" value="+ getUUID(): UUID" style="text;strokeColor=none;fillColor=none;align=left;verticalAlign=top;spacingLeft=4;spacingRight=4;overflow=hidden;rotatable=0;points=[[0,0.5],[1,0.5]];portConstraint=eastwest;" vertex="1" parent="585">
                    <mxGeometry y="26" width="160" height="33" as="geometry"/>
                </mxCell>
                <mxCell id="587" value="DarkLightModeButton" style="swimlane;fontStyle=1;align=center;verticalAlign=top;childLayout=stackLayout;horizontal=1;startSize=26;horizontalStack=0;resizeParent=1;resizeParentMax=0;resizeLast=0;collapsible=1;marginBottom=0;" vertex="1" parent="1">
                    <mxGeometry x="2657" y="1921" width="160" height="52" as="geometry"/>
                </mxCell>
                <mxCell id="589" value="FilterButton" style="swimlane;fontStyle=1;align=center;verticalAlign=top;childLayout=stackLayout;horizontal=1;startSize=26;horizontalStack=0;resizeParent=1;resizeParentMax=0;resizeLast=0;collapsible=1;marginBottom=0;" vertex="1" parent="1">
                    <mxGeometry x="2448" y="1921" width="160" height="52" as="geometry"/>
                </mxCell>
                <mxCell id="590" value="ShowOnMapButton" style="swimlane;fontStyle=1;align=center;verticalAlign=top;childLayout=stackLayout;horizontal=1;startSize=26;horizontalStack=0;resizeParent=1;resizeParentMax=0;resizeLast=0;collapsible=1;marginBottom=0;" vertex="1" parent="1">
                    <mxGeometry x="2252" y="1921" width="160" height="52" as="geometry"/>
                </mxCell>
            </root>
        </mxGraphModel>
    </diagram>
</mxfile>